<svg width="36" height="31" viewBox="0 0 36 31" fill="none" xmlns="http://www.w3.org/2000/svg">
<path d="M4.57289 18.5117H0.809703C0.362438 18.5117 0 18.8742 0 19.3214V20.8868V27.7578V29.3232C0 29.7704 0.362438 30.1329 0.809703 30.1329H4.57289C5.02016 30.1329 5.3826 29.7704 5.3826 29.3232V27.7578V20.8868V19.3214C5.3826 18.8742 5.02016 18.5117 4.57289 18.5117Z" fill="#FEBF32"/>
<path d="M12.1754 14.0156H8.41224C7.96498 14.0156 7.60254 14.3781 7.60254 14.8253V20.8865V23.2617V29.3229C7.60254 29.7701 7.96498 30.1326 8.41224 30.1326H12.1754C12.6227 30.1326 12.9851 29.7701 12.9851 29.3229V23.2617V20.8865V14.8253C12.9851 14.3781 12.6227 14.0156 12.1754 14.0156Z" fill="#FEBF32"/>
<path d="M20.5899 16.4138V9.72029H23.1886C23.6667 9.72029 23.9598 9.19591 23.7053 8.78721L18.4152 0.28918C18.1762 -0.0963932 17.6132 -0.0963932 17.3742 0.28918L12.0841 8.78721C11.8296 9.19591 12.1227 9.72029 12.6008 9.72029H15.1995V29.3228C15.1995 29.7701 15.562 30.1325 16.0092 30.1325H19.7724C20.2197 30.1325 20.5821 29.7701 20.5821 29.3305C19.0707 27.6032 18.153 25.3437 18.153 22.8683C18.153 20.4007 19.0707 18.1412 20.5899 16.4138Z" fill="#FEBF32"/>
<path d="M27.985 15.1655C23.7283 15.1655 20.2812 18.6125 20.2812 22.8693C20.2812 27.126 23.7283 30.573 27.985 30.573C32.2417 30.573 35.6887 27.126 35.6887 22.8693C35.6887 18.6125 32.2417 15.1655 27.985 15.1655ZM30.1982 25.9153C29.8589 26.324 29.427 26.6016 28.9104 26.7404C28.6867 26.8021 28.5865 26.9178 28.6019 27.1491C28.6096 27.3728 28.6019 27.6041 28.6019 27.8354C28.6019 28.0359 28.5017 28.1439 28.3012 28.1516C28.0544 28.1593 27.8076 28.1593 27.5686 28.1516C27.3527 28.1439 27.2524 28.0282 27.2524 27.82C27.2524 27.6504 27.2524 27.4884 27.2447 27.3188C27.2447 26.9486 27.2293 26.9332 26.8745 26.8792C26.4196 26.8098 25.98 26.7019 25.5636 26.5014C25.2397 26.3471 25.2089 26.2623 25.3014 25.923C25.3708 25.6685 25.4402 25.4141 25.5173 25.1673C25.6099 24.8743 25.687 24.8434 25.9569 24.9822C26.4119 25.2213 26.8977 25.3524 27.4066 25.4141C27.7382 25.4526 28.0544 25.4218 28.3551 25.2907C28.9181 25.0439 29.0106 24.3884 28.5325 23.9951C28.3706 23.8641 28.1855 23.7638 27.9927 23.679C27.4992 23.4631 26.9748 23.2934 26.5121 23.0158C25.7487 22.5608 25.2706 21.9362 25.3245 21.0108C25.3862 19.9621 25.98 19.3066 26.9439 18.9596C27.3372 18.813 27.3449 18.8208 27.3449 18.4043C27.3449 18.2655 27.3449 18.1267 27.3449 17.9879C27.3527 17.6717 27.4066 17.6255 27.7151 17.6101C27.8076 17.6101 27.9079 17.6101 28.0004 17.6101C28.6636 17.6101 28.6636 17.6101 28.6636 18.2732C28.6636 18.7436 28.6636 18.7436 29.134 18.813C29.4887 18.867 29.8357 18.975 30.1596 19.1215C30.3447 19.1986 30.4141 19.3297 30.3524 19.5225C30.2676 19.8078 30.1905 20.0931 30.0979 20.3785C30.0131 20.6484 29.9283 20.6869 29.6661 20.5635C29.1494 20.3168 28.6096 20.2088 28.039 20.2397C27.8925 20.2474 27.7459 20.2705 27.6071 20.3322C27.1136 20.5481 27.0365 21.0956 27.4529 21.4272C27.6688 21.5969 27.9079 21.7203 28.1624 21.8282C28.6019 22.0056 29.0415 22.183 29.4502 22.4143C30.7688 23.1238 31.1236 24.7817 30.1982 25.9153Z" fill="#FEBF32"/>
<circle cx="27.955" cy="22.8641" r="5.82215" fill="#FEBF32"/>
<g clip-path="url(#clip0_631_5651)">
<path d="M25.4668 20.2339H30.4021" stroke="white" stroke-width="1.5026" stroke-linecap="round" stroke-linejoin="round"/>
<path d="M25.4668 22.2896H30.4021" stroke="white" stroke-width="1.16493" stroke-linecap="round" stroke-linejoin="round"/>
<path d="M25.4668 24.3462L28.9627 27.6364" stroke="white" stroke-width="1.16493" stroke-linecap="round" stroke-linejoin="round"/>
<path d="M25.4668 24.3462H26.7006" stroke="white" stroke-width="1.16493" stroke-linecap="round" stroke-linejoin="round"/>
<path d="M26.7021 24.3467C29.4441 24.3467 29.4441 20.2339 26.7021 20.2339" stroke="white" stroke-width="1.16493" stroke-linecap="round" stroke-linejoin="round"/>
</g>
<defs>
<clipPath id="clip0_631_5651">
<rect width="9.87066" height="9.87066" fill="white" transform="translate(23 19)"/>
</clipPath>
</defs>
</svg>
