<svg width="27" height="35" viewBox="0 0 27 35" fill="none" xmlns="http://www.w3.org/2000/svg">
<path d="M22.8081 12.5109C22.9765 11.9598 23.1289 11.3133 22.9799 10.694C22.7695 9.80916 22.0488 9.14713 21.276 8.60607C22.3599 7.89709 23.6493 6.93044 24.5396 5.86211L24.5751 5.81882L23.7075 4.89805L23.6611 4.93232C23.6475 4.94246 23.1801 5.28495 22.4842 5.74361L23.4121 4.13644L23.3564 4.10425C23.1463 3.98196 22.9031 3.92949 22.6628 3.9546C22.4226 3.97972 22.198 4.08109 22.0226 4.24367L20.4933 5.65087L21.2182 3.56118C21.279 3.3828 21.2682 3.18706 21.188 3.01425C21.1077 2.84144 20.9642 2.70469 20.7869 2.63215C20.6096 2.55961 20.412 2.55678 20.2347 2.62426C20.0575 2.69174 19.9142 2.82439 19.8341 2.99491L18.923 4.9651C18.8612 3.87204 18.9246 2.77742 19.1119 1.70223L19.126 1.62693L18.3207 1.62441C18.1732 1.6235 18.0286 1.66103 17.9014 1.73325C17.7742 1.80547 17.6689 1.90983 17.596 2.0359C17.5536 2.10939 17.5227 2.18893 17.5042 2.27186C17.293 3.23445 16.9867 4.89789 17.014 6.31225C16.568 6.13713 16.1035 5.97308 15.618 5.81654C14.1212 5.33405 12.9125 5.91213 12.2147 7.44551L12.1963 7.48506C11.868 8.20173 11.4741 8.90509 11.0943 9.58603C10.6759 10.3347 10.2421 11.1082 9.88981 11.9087C8.96754 14 8.22167 16.2019 7.50014 18.3328L7.49684 18.3386C6.95756 19.9318 6.40303 21.5784 6.07973 23.2637C5.90159 24.1968 5.78792 25.1558 5.69262 26.1078L5.67043 26.1463L5.68749 26.1561C5.65321 26.4951 5.62226 26.8322 5.59124 27.1666C5.55795 27.5247 5.52385 27.8819 5.48894 28.2384L5.35078 29.6308C5.31002 30.0435 5.26191 30.5141 5.39142 30.9509C5.48124 31.2547 5.69121 31.5771 5.99247 31.7511C6.09782 31.8125 6.21394 31.8533 6.33433 31.871C6.78456 31.9368 7.19562 31.6736 7.57254 31.3792C9.13318 30.1646 10.3334 28.7517 11.6025 27.256C11.8135 27.0077 12.0261 26.7584 12.2402 26.508C13.8061 24.6857 15.4409 22.8755 17.0959 21.1324C19.4533 18.6472 21.7744 15.8869 22.8081 12.5109ZM22.339 5.99511C23.0279 5.55043 23.5357 5.18324 23.6949 5.0669L24.4038 5.82243C23.5127 6.87776 22.2316 7.83009 21.1633 8.52738C20.9327 8.37134 20.7005 8.22476 20.4753 8.08544L20.3574 8.01192L20.3395 8.00159C20.2434 7.94227 20.1495 7.8848 20.0592 7.82779C19.969 7.77078 19.8838 7.71835 19.7943 7.66499L19.6814 7.59713L19.5774 7.53707C19.6266 7.5153 19.6765 7.4923 19.727 7.4702L19.8909 7.39197C20.6522 7.0189 21.3911 6.60338 22.1041 6.14737C22.1836 6.09514 22.2635 6.04527 22.339 5.99511ZM22.1109 4.33666C22.2586 4.2002 22.4455 4.11235 22.6465 4.0849C22.8476 4.05744 23.0533 4.09169 23.236 4.18305L22.2474 5.89532C21.5076 6.37539 20.7413 6.81449 19.9517 7.21064L20.4042 5.90805L22.1109 4.33666ZM19.9511 3.04989C20.0171 2.9085 20.1357 2.79844 20.2824 2.74239C20.4292 2.68633 20.5929 2.68856 20.7398 2.74862C20.8867 2.80868 21.0056 2.92198 21.0719 3.06517C21.1383 3.20835 21.1471 3.37051 21.0966 3.51821L20.2931 5.8352L20.2041 6.09131L19.789 7.29065C19.6711 7.34689 19.5534 7.40123 19.4358 7.45368C19.4063 7.43662 19.3755 7.41884 19.3455 7.40155L19.2623 7.3535C19.2583 7.33645 19.2541 7.31875 19.2503 7.30024C19.096 6.61845 18.9929 5.92701 18.9417 5.23161L19.9511 3.04989ZM17.2429 4.55507C17.3459 3.6876 17.5048 2.87145 17.6296 2.30065C17.6636 2.14375 17.7508 2.00386 17.8767 1.90406C18.0026 1.80426 18.1597 1.75052 18.3221 1.75172L18.9713 1.75355C18.779 2.89298 18.7248 4.05311 18.8097 5.20939C18.8145 5.29721 18.8229 5.38443 18.8308 5.47075C18.8855 6.07723 18.9794 6.68018 19.1118 7.27589C18.8191 7.11888 18.5177 6.96724 18.208 6.82332C18.1687 6.80497 18.13 6.78646 18.0902 6.76892C17.7845 6.62882 17.4692 6.49402 17.1441 6.3645C17.1344 5.75918 17.1674 5.15455 17.2429 4.55507V4.55507ZM15.3909 19.3759L15.3274 19.4859L17.3617 20.6605C17.2428 20.7882 17.1233 20.9151 17.0031 21.0413C15.9128 22.1899 14.8316 23.3677 13.7721 24.5581L11.6687 23.3437L11.6054 23.4533L13.6859 24.6545C13.1652 25.2405 12.6508 25.8295 12.1425 26.4216C12.0323 26.551 11.9221 26.6793 11.8131 26.8077L11.8652 26.7173L10.1301 25.7156L10.0668 25.8252L11.799 26.8253C11.7003 26.9406 11.6024 27.0553 11.5052 27.1709C11.081 27.6702 10.6659 28.1585 10.2409 28.6362L8.89311 27.858L8.82984 27.9676L10.1543 28.7323C9.33838 29.643 8.48925 30.5006 7.49306 31.2766C7.13811 31.5532 6.75424 31.801 6.35162 31.743C5.92437 31.6807 5.62409 31.2821 5.51556 30.9146C5.39361 30.5013 5.43903 30.0449 5.47964 29.6431L5.6178 28.2506C5.65339 27.8949 5.68751 27.5373 5.72015 27.1777C5.74975 26.8622 5.77904 26.5443 5.811 26.2247L7.0822 26.9586L7.14547 26.849L5.82684 26.0877C5.91096 25.2453 6.00913 24.3969 6.15542 23.5669L7.77823 24.5038L7.8415 24.3942L6.18083 23.4355C6.18905 23.3857 6.19851 23.3366 6.21005 23.2887C6.38235 22.4197 6.60046 21.5608 6.86347 20.7156L8.9132 21.899L8.97648 21.7894L6.89762 20.5892C7.12593 19.842 7.37534 19.1054 7.61932 18.3782L7.62262 18.3725C7.88297 17.6035 8.14572 16.8255 8.42028 16.0472L10.5087 17.253L10.5722 17.143L8.46382 15.9257C8.93428 14.591 9.43725 13.2537 10.0074 11.9596C10.1289 11.6857 10.2589 11.4135 10.3958 11.1446L12.5113 12.366L12.5748 12.256L10.4527 11.0308C10.695 10.5611 10.9526 10.0996 11.2055 9.64806C11.5876 8.96514 11.9825 8.25909 12.3123 7.53891L12.3318 7.49837C12.3715 7.40949 12.4125 7.32687 12.4581 7.24412L14.5494 8.45155L14.6127 8.34195L12.5197 7.13356C13.2049 5.9419 14.2794 5.51751 15.5805 5.93721C16.0811 6.09901 16.5601 6.27011 17.0174 6.45052C17.0625 6.46841 17.1052 6.48486 17.1474 6.50213C17.4526 6.62493 17.749 6.75224 18.0365 6.88405L18.1543 6.93845C18.4973 7.09833 18.8292 7.26631 19.1499 7.4424L19.1596 7.48339L19.1751 7.4564C19.2126 7.47802 19.25 7.49965 19.2885 7.51857L19.2866 7.52184C19.2866 7.52184 19.288 7.51939 19.2914 7.52025L19.3006 7.52554C19.3451 7.55124 19.3884 7.57623 19.432 7.60145C19.4508 7.61226 19.4687 7.62259 19.4874 7.63341C19.5377 7.66247 19.5881 7.69154 19.6376 7.72013L19.7516 7.78596C19.8334 7.83646 19.9117 7.88439 19.9912 7.9341C20.0707 7.98381 20.1577 8.03784 20.2445 8.09122L20.2719 8.10708L20.3635 8.16375C20.5848 8.30132 20.8168 8.4462 21.0458 8.60021C21.086 8.62669 21.1225 8.65271 21.161 8.67929C21.9294 9.21177 22.6489 9.86055 22.8554 10.7203C22.9966 11.3099 22.8488 11.9368 22.6848 12.4708C22.6609 12.5486 22.6371 12.6264 22.6125 12.7017L20.4537 11.4553L20.39 11.5657L22.5721 12.8255C21.568 15.8032 19.5569 18.3035 17.4518 20.562L15.3909 19.3759Z" fill="#1B2709"/>
<path d="M19.112 7.27568C18.8193 7.11867 18.5179 6.96703 18.2082 6.82311C18.1689 6.80476 18.1302 6.78624 18.0904 6.76871C17.7847 6.62861 17.4694 6.4938 17.1443 6.36429C17.1353 5.75932 17.169 5.1551 17.2451 4.55606C17.3482 3.68859 17.507 2.87244 17.6319 2.30164C17.6661 2.14487 17.7534 2.00512 17.8792 1.90536C18.0051 1.80561 18.1621 1.75177 18.3244 1.75271L18.9715 1.75334C18.7792 2.89277 18.725 4.0529 18.8099 5.20918C18.8147 5.297 18.8231 5.38422 18.831 5.47054C18.8857 6.07702 18.9795 6.67997 19.112 7.27568V7.27568Z" fill="#6DA035"/>
<path d="M19.7882 7.29233C19.6702 7.34857 19.5525 7.40291 19.4349 7.45536C19.4054 7.4383 19.3746 7.42052 19.3446 7.40323L19.2614 7.35518C19.2574 7.33813 19.2532 7.32043 19.2494 7.30192C19.0951 6.62013 18.992 5.92869 18.9408 5.23329L19.3329 4.38985L19.9527 3.04918C20.0187 2.9078 20.1373 2.79774 20.2841 2.74168C20.4308 2.68563 20.5945 2.68786 20.7414 2.74792C20.8883 2.80797 21.0072 2.92128 21.0736 3.06446C21.1399 3.20765 21.1487 3.36981 21.0982 3.5175L20.2947 5.83449L20.2057 6.09061L19.8744 7.04877L19.7882 7.29233Z" fill="#6DA035"/>
<path d="M23.2353 4.18362L22.2467 5.89589C21.961 6.07937 21.6448 6.27631 21.3093 6.47303C20.8782 6.72684 20.4165 6.98264 19.951 7.21121L20.4035 5.90862L22.1102 4.33724C22.2579 4.20071 22.4447 4.11283 22.6458 4.08537C22.8469 4.05791 23.0526 4.09219 23.2353 4.18362V4.18362Z" fill="#6DA035"/>
<path d="M24.4046 5.82277C23.5135 6.8781 22.2324 7.83043 21.1641 8.52771C20.9335 8.37168 20.7013 8.2251 20.4761 8.08578L20.3582 8.01226L20.3403 8.00193C20.2442 7.94261 20.1503 7.88514 20.06 7.82813L20.0109 7.79978C19.9394 7.75463 19.8669 7.71007 19.7941 7.66697L19.6813 7.5991L19.5773 7.53904C19.6264 7.51727 19.6763 7.49428 19.7268 7.47217L19.8907 7.39395C20.652 7.02087 21.3909 6.60535 22.1039 6.14935C22.1847 6.0989 22.2637 6.04854 22.3401 5.99886C23.029 5.55418 23.5367 5.18699 23.696 5.07065L24.2231 5.63179L24.4046 5.82277Z" fill="#6DA035"/>
<path d="M15.3906 19.3758L15.3271 19.4858L17.3615 20.6604C17.2426 20.788 17.1231 20.915 17.0029 21.0411C15.9126 22.1897 14.8314 23.3676 13.7718 24.558L11.6684 23.3436L11.6052 23.4532L13.6857 24.6544C13.165 25.2404 12.6505 25.8294 12.1423 26.4215C12.0321 26.5509 11.9219 26.6792 11.8128 26.8076L11.865 26.7172L10.1298 25.7154L10.0666 25.825L11.7988 26.8251C11.7001 26.9404 11.6022 27.0552 11.505 27.1708C11.0807 27.6701 10.6657 28.1584 10.2406 28.6361L8.89288 27.8579L8.8296 27.9675L10.1541 28.7322C9.33815 29.6428 8.48902 30.5005 7.49283 31.2765C7.13788 31.553 6.754 31.8009 6.35139 31.7429C6.07926 31.703 5.8581 31.5268 5.70582 31.3091C5.62119 31.1885 5.55685 31.0552 5.51533 30.9145C5.39337 30.5011 5.4388 30.0448 5.47941 29.6429L5.61757 28.2505C5.65316 27.8948 5.68727 27.5372 5.71992 27.1776C5.74952 26.8621 5.77881 26.5442 5.81077 26.2246L7.08197 26.9585L7.14524 26.8489L5.82661 26.0876C5.91073 25.2452 6.0089 24.3968 6.15519 23.5668L7.778 24.5037L7.84127 24.3941L6.1806 23.4353C6.18881 23.3856 6.19828 23.3365 6.20982 23.2886C6.38212 22.4195 6.60022 21.5606 6.86324 20.7155L8.91297 21.8989L8.97625 21.7893L6.89739 20.589C7.1257 19.8419 7.37511 19.1053 7.61908 18.3781L7.62239 18.3723C7.88274 17.6033 8.14549 16.8254 8.42005 16.0471L10.5085 17.2529L10.572 17.1429L8.46359 15.9256C8.93404 14.5908 9.43701 13.2536 10.0072 11.9595C10.1287 11.6856 10.2587 11.4134 10.3956 11.1445L12.5111 12.3659L12.5746 12.2559L10.4525 11.0307C10.6948 10.561 10.9523 10.0995 11.2053 9.64794C11.5874 8.96502 11.9822 8.25897 12.312 7.53878L12.3316 7.49825C12.3712 7.40937 12.4123 7.32675 12.4578 7.244L14.5492 8.45143L14.6124 8.34183L12.5194 7.13344C13.2047 5.94178 14.2791 5.51739 15.5803 5.93709C16.0809 6.09888 16.5598 6.26999 17.0171 6.4504C17.0623 6.46829 17.1049 6.48474 17.1471 6.50201C17.4524 6.62481 17.7487 6.75212 18.0362 6.88393L18.1541 6.93833C18.4971 7.09821 18.829 7.26619 19.1497 7.44228L19.1593 7.48327L19.1749 7.45628C19.2124 7.4779 19.2498 7.49952 19.2883 7.51845L19.2864 7.52172C19.2864 7.52172 19.2878 7.51927 19.2912 7.52013L19.3003 7.52542C19.3448 7.55112 19.3881 7.57611 19.4318 7.60133C19.4505 7.61214 19.4684 7.62247 19.4872 7.63329C19.5375 7.66235 19.5879 7.69142 19.6374 7.72001L19.7514 7.78584L19.9829 7.92876L19.9912 7.93357C20.0725 7.98489 20.1577 8.03731 20.2445 8.09069L20.2719 8.10655L20.3635 8.16323C20.5848 8.3008 20.8168 8.44567 21.0458 8.59969C21.086 8.62616 21.1226 8.65218 21.161 8.67876C21.9294 9.21124 22.6489 9.86002 22.8554 10.7198C22.9966 11.3094 22.8488 11.9362 22.6848 12.4702C22.6609 12.5481 22.6371 12.6259 22.6125 12.7011L20.4538 11.4548L20.39 11.5652L22.5721 12.825C21.5681 15.8026 19.5569 18.303 17.4518 20.5615L15.3906 19.3758Z" fill="#F67727"/>
<path d="M20.4218 16.7853L18.2734 15.5449L18.2099 15.6549L20.3583 16.8953L20.4218 16.7853Z" fill="#1B2709"/>
<path d="M16.3833 11.5974L14.4268 10.4678L14.3632 10.5778L16.3198 11.7074L16.3833 11.5974Z" fill="#1B2709"/>
<path d="M19.9613 13.6626L17.6973 12.3555L17.6338 12.4655L19.8978 13.7726L19.9613 13.6626Z" fill="#1B2709"/>
<path d="M13.7505 16.1579L11.7939 15.0283L11.7304 15.1383L13.687 16.2679L13.7505 16.1579Z" fill="#1B2709"/>
<path d="M17.3285 18.2232L15.0645 16.916L15.0009 17.026L17.265 18.3332L17.3285 18.2232Z" fill="#1B2709"/>
<path d="M11.5457 20.5254L10.1621 19.7266L10.0986 19.8366L11.4821 20.6354L11.5457 20.5254Z" fill="#1B2709"/>
<path d="M14.0758 21.986L12.4746 21.0615L12.4111 21.1715L14.0123 22.096L14.0758 21.986Z" fill="#1B2709"/>
<path d="M9.72144 23.6845L8.33789 22.8857L8.27438 22.9957L9.65792 23.7945L9.72144 23.6845Z" fill="#1B2709"/>
<path d="M12.2516 25.1451L10.6504 24.2207L10.5869 24.3307L12.188 25.2551L12.2516 25.1451Z" fill="#1B2709"/>
<path d="M8.41767 26.1549L7.59961 25.6826L7.5361 25.7926L8.35416 26.2649L8.41767 26.1549Z" fill="#1B2709"/>
<path d="M8.18735 28.4396L7.37012 27.9678L7.3066 28.0778L8.12383 28.5496L8.18735 28.4396Z" fill="#1B2709"/>
<path d="M7.39228 30.1413L6.57422 29.6689L6.51071 29.779L7.32877 30.2513L7.39228 30.1413Z" fill="#1B2709"/>
<path d="M8.73227 29.8888L7.91504 29.417L7.85153 29.527L8.66876 29.9988L8.73227 29.8888Z" fill="#1B2709"/>
<path d="M6.50514 28.6029L5.6875 28.1309L5.62399 28.2409L6.44163 28.7129L6.50514 28.6029Z" fill="#1B2709"/>
<path d="M9.91246 27.0182L8.96582 26.4717L8.90231 26.5817L9.84894 27.1282L9.91246 27.0182Z" fill="#1B2709"/>
<path d="M19.2122 7.69356L19.207 7.67383L19.1916 7.70061C19.1986 7.69884 19.2055 7.69648 19.2122 7.69356Z" fill="black"/>
<path d="M19.7873 7.29213C19.6694 7.34837 19.5516 7.40271 19.4341 7.45516C19.4045 7.4381 19.3737 7.42032 19.3438 7.40303L19.2606 7.35498C19.2565 7.33793 19.2523 7.32023 19.2486 7.30172C19.0943 6.61993 18.9911 5.92849 18.9399 5.23309L19.332 4.38965L19.8716 7.04907L19.7873 7.29213Z" fill="#365229"/>
<path d="M18.0893 6.7681C17.7836 6.628 17.4683 6.4932 17.1432 6.36369C17.1342 5.75871 17.1679 5.15449 17.244 4.55545C17.3471 3.68798 17.5059 2.87183 17.6308 2.30103C17.6537 2.19564 17.7008 2.09724 17.7684 2.0134C17.8361 1.92956 17.9224 1.86252 18.0209 1.81744C17.7837 2.68378 17.532 4.36129 18.0893 6.7681Z" fill="#365229"/>
<path d="M24.4039 5.8225C23.5127 6.87782 22.2317 7.83016 21.1633 8.52744C20.9327 8.37141 20.7006 8.22483 20.4753 8.0855L20.3574 8.01198L20.3395 8.00165C20.2434 7.94233 20.1495 7.88487 20.0593 7.82785L20.0102 7.79951C22.2746 7.25515 23.5843 6.2561 24.2223 5.63152L24.4039 5.8225Z" fill="#365229"/>
<path d="M23.2354 4.18349L22.2468 5.89577C21.9611 6.07925 21.6449 6.27619 21.3094 6.4729L22.6909 4.08014C22.8778 4.06328 23.0665 4.0991 23.2354 4.18349V4.18349Z" fill="#365229"/>
<path d="M9.27859 28.2262L10.1549 28.7321C9.33899 29.6427 8.48986 30.5004 7.49367 31.2764C7.13872 31.553 6.75484 31.8008 6.35223 31.7428C6.0801 31.7029 5.85894 31.5267 5.70667 31.309C5.83756 31.1698 5.975 31.0365 6.11547 30.9066C6.85587 30.2353 7.74223 29.735 8.48447 29.0654C8.7702 28.806 9.03565 28.5255 9.27859 28.2262Z" fill="#F65B27"/>
<path d="M10.627 26.149L11.7987 26.8255C11.7 26.9408 11.6021 27.0555 11.5048 27.1711C11.0806 27.6705 10.6655 28.1588 10.2405 28.6364L9.35756 28.1266C9.84127 27.5166 10.2472 26.8442 10.627 26.149Z" fill="#F65B27"/>
<path d="M11.9561 23.6562L13.6866 24.6554C13.166 25.2414 12.6515 25.8304 12.1432 26.4225C12.033 26.5519 11.9229 26.6802 11.8138 26.8086L11.8659 26.7182L10.6884 26.0384C10.9933 25.4756 11.2819 24.9017 11.5814 24.3407C11.7038 24.1115 11.8287 23.8833 11.9561 23.6562Z" fill="#F65B27"/>
<path d="M15.3904 19.3755L15.3269 19.4855L17.3613 20.66C17.2424 20.7877 17.1229 20.9147 17.0027 21.0408C15.9124 22.1894 14.8312 23.3673 13.7717 24.5577L12.0174 23.5449C13.5078 20.9054 15.3129 18.4561 17.3947 16.2491C18.2488 15.3463 19.1665 14.4525 19.6366 13.3029C20.114 12.1368 19.9062 9.96451 19.9814 7.92773L19.9898 7.93254C20.0711 7.98386 20.1562 8.03628 20.243 8.08967L20.2705 8.10552L20.362 8.1622C20.5833 8.29977 20.8154 8.44464 21.0444 8.59866C21.0845 8.62513 21.1211 8.65116 21.1596 8.67773C21.9279 9.21021 22.6474 9.85899 22.854 10.7187C22.9951 11.3084 22.8474 11.9352 22.6833 12.4692C22.6595 12.547 22.6356 12.6249 22.6111 12.7001L20.4536 11.4545L20.3898 11.5649L22.5719 12.8247C21.5679 15.8023 19.5567 18.3027 17.4516 20.5612L15.3904 19.3755Z" fill="#F65B27"/>
</svg>
