<svg width="27" height="33" viewBox="0 0 27 33" fill="none" xmlns="http://www.w3.org/2000/svg">
<path d="M8.45293 19.9427L13.2926 15.0493L18.1323 10.1558M9.2596 10.9714H9.27573M17.3257 19.1272H17.3418M24.5853 31.3608V5.26232C24.5853 3.46059 23.1408 2 21.3588 2H5.22647C3.44454 2 2 3.46059 2 5.26232V31.3608L7.64632 28.0985L13.2926 31.3608L18.9389 28.0985L24.5853 31.3608ZM10.0662 10.9714C10.0662 11.4218 9.70503 11.7869 9.25955 11.7869C8.81407 11.7869 8.45293 11.4218 8.45293 10.9714C8.45293 10.5209 8.81407 10.1558 9.25955 10.1558C9.70503 10.1558 10.0662 10.5209 10.0662 10.9714ZM18.1323 19.1272C18.1323 19.5775 17.7711 19.9427 17.3257 19.9427C16.8803 19.9427 16.5191 19.5775 16.5191 19.1272C16.5191 18.6768 16.8803 18.3116 17.3257 18.3116C17.7711 18.3116 18.1323 18.6768 18.1323 19.1272Z" stroke="#FEBF32" stroke-width="2.84137" stroke-linecap="round" stroke-linejoin="round"/>
</svg>
