<svg width="19" height="41" viewBox="0 0 19 41" fill="none" xmlns="http://www.w3.org/2000/svg">
<path d="M17.6425 25.8472H10.1179V24.7084L11.8453 22.981C12.1318 23.021 12.3993 23.0413 12.6546 23.0413C16.1316 23.0414 18.9605 20.2126 18.9605 16.7354C18.9605 16.3827 18.9231 16.0081 18.8461 15.5902C18.7982 15.3299 18.5946 15.1263 18.3343 15.0784C17.9163 15.0014 17.5418 14.964 17.1891 14.964C13.712 14.9641 10.8832 17.7929 10.8832 21.27C10.8832 21.5254 10.9034 21.7929 10.9435 22.0793L10.1179 22.9048V14.8516C13.9227 14.5271 16.9198 11.327 16.9198 7.43964C16.9199 3.33733 13.5826 0 9.48033 0C5.3781 0 2.04077 3.33733 2.04077 7.43956C2.04077 11.3269 5.03797 14.527 8.84263 14.8515V22.9047L8.01712 22.0792C8.05713 21.7928 8.07742 21.5253 8.07742 21.27C8.07742 17.793 5.24861 14.9641 1.77144 14.9641C1.41874 14.9641 1.04409 15.0014 0.626167 15.0784C0.3659 15.1263 0.162269 15.33 0.114384 15.5902C0.0374653 16.0082 0 16.3828 0 16.7355C7.95436e-05 20.2125 2.82889 23.0414 6.30606 23.0414C6.56139 23.0414 6.8289 23.0211 7.11534 22.9811L8.84263 24.7084V25.8472H1.31804C0.591327 25.8472 0.000159 26.4384 0.000159 27.1651V28.5255C0.000159 29.2522 0.591327 29.8433 1.31804 29.8433H1.43528L2.5769 38.9761C2.70162 39.9739 3.55401 40.7263 4.55952 40.7263H14.4011C15.4066 40.7263 16.259 39.9739 16.3836 38.9761L17.5252 29.8433H17.6425C18.3692 29.8433 18.9603 29.2522 18.9603 28.5255V27.1651C18.9604 26.4384 18.3692 25.8472 17.6425 25.8472ZM17.1891 16.2395C17.3397 16.2395 17.4939 16.2482 17.6584 16.2663C17.6764 16.4308 17.6851 16.585 17.6851 16.7355C17.6851 19.366 15.6551 21.5301 13.0796 21.7468L14.0123 20.8141C14.2614 20.565 14.2614 20.1613 14.0123 19.9123C13.7633 19.6633 13.3595 19.6633 13.1105 19.9123L12.1778 20.845C12.3945 18.2695 14.5585 16.2395 17.1891 16.2395ZM5.85004 19.9123C5.60098 19.6633 5.19722 19.6633 4.94825 19.9123C4.6992 20.1614 4.6992 20.5651 4.94825 20.8141L5.88098 21.7468C3.30544 21.5302 1.27548 19.3662 1.27548 16.7355C1.27548 16.5849 1.28415 16.4308 1.30221 16.2663C1.46671 16.2482 1.62094 16.2395 1.77144 16.2395C4.40194 16.2395 6.56601 18.2695 6.78276 20.845L5.85004 19.9123ZM3.31609 7.43956C3.31609 4.04058 6.08135 1.27532 9.48033 1.27532C12.8793 1.27532 15.6446 4.04058 15.6446 7.43956C15.6446 10.8385 12.8793 13.6038 9.48033 13.6038C6.08135 13.6038 3.31609 10.8385 3.31609 7.43956ZM15.1182 38.8179C15.073 39.1788 14.7648 39.451 14.4011 39.451H4.55952C4.19577 39.451 3.88746 39.1788 3.84235 38.8179L2.72055 29.8433H16.2401L15.1182 38.8179ZM17.6851 28.5255C17.6851 28.5489 17.6661 28.5679 17.6426 28.5679H1.31804C1.29457 28.5679 1.27556 28.5489 1.27556 28.5255V27.1651C1.27556 27.1416 1.29457 27.1226 1.31804 27.1226H17.6426C17.6661 27.1226 17.6851 27.1416 17.6851 27.1651V28.5255Z" fill="#FEBF32"/>
<path d="M7.03613 3.25781H12.4666" stroke="#FEBF32" stroke-width="0.814527" stroke-linecap="round" stroke-linejoin="round"/>
<path d="M7.03613 5.52002H12.4666" stroke="#FEBF32" stroke-width="0.814527" stroke-linecap="round" stroke-linejoin="round"/>
<path d="M7.03613 7.7832L10.8827 11.4035" stroke="#FEBF32" stroke-width="0.814527" stroke-linecap="round" stroke-linejoin="round"/>
<path d="M7.03613 7.7832H8.39375" stroke="#FEBF32" stroke-width="0.814527" stroke-linecap="round" stroke-linejoin="round"/>
<path d="M8.39453 7.78321C11.4116 7.78321 11.4116 3.25781 8.39453 3.25781" stroke="#FEBF32" stroke-width="0.814527" stroke-linecap="round" stroke-linejoin="round"/>
</svg>
