<svg width="55" height="34" viewBox="0 0 55 34" fill="none" xmlns="http://www.w3.org/2000/svg">
<path d="M54.7135 1.71189C54.4349 1.03721 53.9017 0.501072 53.2308 0.220889C52.9006 0.0794067 52.5462 0.00436252 52.1873 0H38.458C37.7298 0 37.0313 0.290902 36.5164 0.808711C36.0014 1.32652 35.7121 2.02882 35.7121 2.76111C35.7121 3.4934 36.0014 4.1957 36.5164 4.71351C37.0313 5.23132 37.7298 5.52222 38.458 5.52222H45.5698L30.2204 20.9568L21.1865 11.8452C20.9313 11.5864 20.6276 11.381 20.293 11.2408C19.9584 11.1006 19.5995 11.0284 19.237 11.0284C18.8745 11.0284 18.5156 11.1006 18.181 11.2408C17.8464 11.381 17.5427 11.5864 17.2874 11.8452L0.812222 28.4118C0.554856 28.6685 0.35058 28.9739 0.211176 29.3104C0.0717721 29.6468 0 30.0077 0 30.3722C0 30.7367 0.0717721 31.0976 0.211176 31.4341C0.35058 31.7706 0.554856 32.0759 0.812222 32.3326C1.06749 32.5914 1.37118 32.7968 1.70579 32.937C2.0404 33.0772 2.3993 33.1493 2.76179 33.1493C3.12427 33.1493 3.48317 33.0772 3.81778 32.937C4.15239 32.7968 4.45608 32.5914 4.71135 32.3326L19.237 17.6987L28.2709 26.8104C28.5261 27.0692 28.8298 27.2746 29.1644 27.4148C29.499 27.555 29.8579 27.6271 30.2204 27.6271C30.5829 27.6271 30.9418 27.555 31.2764 27.4148C31.611 27.2746 31.9147 27.0692 32.17 26.8104L49.4415 9.41539V16.5667C49.4415 17.299 49.7308 18.0013 50.2457 18.5191C50.7607 19.0369 51.4591 19.3278 52.1873 19.3278C52.9156 19.3278 53.614 19.0369 54.129 18.5191C54.6439 18.0013 54.9332 17.299 54.9332 16.5667V2.76111C54.9289 2.4003 54.8542 2.04384 54.7135 1.71189V1.71189Z" fill="#FEBF32"/>
</svg>
