<svg width="55" height="55" viewBox="0 0 55 55" fill="none" xmlns="http://www.w3.org/2000/svg">
<path d="M3.43359 12.0171V41.2004H51.5001V12.0171H3.43359ZM10.3002 15.4504H44.6335C44.6335 16.361 44.9952 17.2343 45.6391 17.8781C46.283 18.522 47.1562 18.8837 48.0668 18.8837V34.3337C47.1562 34.3337 46.283 34.6954 45.6391 35.3393C44.9952 35.9832 44.6335 36.8565 44.6335 37.767H10.3002C10.3002 36.8565 9.93852 35.9832 9.29465 35.3393C8.65077 34.6954 7.77749 34.3337 6.86692 34.3337V18.8837C7.77749 18.8837 8.65077 18.522 9.29465 17.8781C9.93852 17.2343 10.3002 16.361 10.3002 15.4504ZM25.7502 18.8837C25.7502 21.354 24.7872 22.3171 22.3169 22.3171V25.7504C23.649 25.7504 24.7837 25.4912 25.7502 25.0431V34.3337H29.1835V18.8837H25.7502ZM14.5919 24.0337C14.2536 24.0338 13.9187 24.1006 13.6062 24.2301C13.2938 24.3597 13.0099 24.5495 12.7707 24.7888C12.5316 25.0281 12.342 25.3121 12.2127 25.6246C12.0833 25.9372 12.0168 26.2722 12.0169 26.6104C12.017 26.9487 12.0838 27.2836 12.2133 27.5961C12.3429 27.9086 12.5327 28.1925 12.772 28.4316C13.0112 28.6707 13.2953 28.8603 13.6078 28.9897C13.9204 29.119 14.2554 29.1855 14.5936 29.1854C15.2768 29.1852 15.9319 28.9136 16.4148 28.4304C16.8977 27.9471 17.1688 27.2919 17.1686 26.6087C17.1684 25.9256 16.8968 25.2705 16.4136 24.7876C15.9303 24.3047 15.2751 24.0335 14.5919 24.0337V24.0337ZM40.3418 24.0337C40.0036 24.0338 39.6686 24.1006 39.3562 24.2301C39.0437 24.3597 38.7598 24.5495 38.5207 24.7888C38.2816 25.0281 38.0919 25.3121 37.9626 25.6246C37.8332 25.9372 37.7667 26.2722 37.7668 26.6104C37.767 26.9487 37.8337 27.2836 37.9632 27.5961C38.0928 27.9086 38.2826 28.1925 38.5219 28.4316C38.7612 28.6707 39.0452 28.8603 39.3578 28.9897C39.6703 29.119 40.0053 29.1855 40.3436 29.1854C41.0267 29.1852 41.6818 28.9136 42.1647 28.4304C42.6476 27.9471 42.9188 27.2919 42.9185 26.6087C42.9183 25.9256 42.6467 25.2705 42.1635 24.7876C41.6803 24.3047 41.025 24.0335 40.3418 24.0337V24.0337Z" fill="#FEBF32"/>
</svg>
