<svg width="85" height="91" viewBox="0 0 85 91" fill="none" xmlns="http://www.w3.org/2000/svg">
<path d="M61.5575 25.4197C61.9147 16.6789 55.8435 8.29484 43.1656 0.267575C42.63 -0.0891918 41.9157 -0.0891918 41.38 0.267575C40.6658 0.624343 22.8096 10.9706 22.8096 25.2413C22.8096 33.4469 28.7021 41.1174 40.4872 48.0744V53.6043C40.4872 54.6746 41.2015 55.3881 42.2728 55.3881C43.3442 55.3881 44.0585 54.6746 44.0585 53.6043V48.2528C47.6297 46.1122 61.0218 37.7281 61.5575 25.4197ZM26.2022 25.4197C26.2022 14.895 38.523 6.33262 42.0943 4.01363C52.808 10.9706 58.1649 18.2843 57.9863 25.4197C57.6292 34.3388 48.5225 41.2958 43.8799 44.1499V35.9443L51.7366 30.5928C52.6294 30.0576 52.808 28.9873 52.2723 28.0954C51.7366 27.2035 50.6652 27.0251 49.7724 27.5603L43.8799 31.6631V26.1332L49.7724 22.3871C50.6652 21.852 50.8438 20.7817 50.3081 19.8898C49.7724 18.9979 48.7011 18.8195 47.8083 19.3546L43.8799 21.852V12.576C43.8799 11.5057 43.1656 10.7922 42.0943 10.7922C41.0229 10.7922 40.3086 11.5057 40.3086 12.576V22.0304L36.3803 19.533C35.4875 18.9979 34.4161 19.1762 33.8804 20.0682C33.3447 20.9601 33.5233 22.0304 34.4161 22.5655L40.3086 26.3116V31.4847L35.4875 27.7387C34.7732 27.2035 33.5233 27.3819 32.9876 28.0954C32.4519 28.809 32.6305 30.0576 33.3447 30.5928L40.3086 35.9443V43.9716C31.0234 38.0849 26.2022 31.8415 26.2022 25.4197Z" fill="#FEBF32"/>
<path d="M27.0661 53.0049C25.6652 51.1414 23.0088 50.7582 21.1454 52.1591C19.282 53.56 18.8987 56.2163 20.2996 58.0798L25.3348 64.7935C25.9692 65.6393 25.8767 66.8155 25.1366 67.5556L23.445 69.2472C22.5595 70.1327 21.119 70.0666 20.326 69.1018L8.45816 54.8551V35.2428C8.45816 32.9035 6.56829 31.0137 4.22908 31.0137C1.88987 31.0137 0 32.9035 0 35.2428V64.1062C0 65.5468 0.488987 66.9476 1.38767 68.071L15.1454 85.8199C15.8062 86.6789 16.2555 87.6569 16.5198 88.6878C16.7577 89.5996 17.5903 90.2208 18.5419 90.2208H35.9472C37.1102 90.2208 38.0617 89.2693 38.0617 88.1063V73.3045C38.0617 69.6437 36.8723 66.0886 34.6785 63.1547L27.0661 53.0049V53.0049ZM80.3525 31.0137C78.0133 31.0137 76.1234 32.9035 76.1234 35.2428V54.8551L64.2556 69.1018C63.4626 70.0534 62.0089 70.1194 61.1366 69.2472L59.445 67.5556C58.7049 66.8155 58.6124 65.6393 59.2468 64.7935L64.282 58.0798C65.6829 56.2163 65.2996 53.56 63.4362 52.1591C61.5728 50.7582 58.9164 51.1414 57.5155 53.0049L49.9031 63.1547C47.7093 66.0886 46.5199 69.6437 46.5199 73.3045V88.1063C46.5199 89.2693 47.4714 90.2208 48.6344 90.2208H66.0397C66.9781 90.2208 67.8239 89.5996 68.0618 88.6878C68.3261 87.6569 68.7754 86.6789 69.4362 85.8199L83.1939 68.071C84.0926 66.9476 84.5816 65.5468 84.5816 64.1062V35.2428C84.5816 32.9035 82.6917 31.0137 80.3525 31.0137Z" fill="#FEBF32"/>
</svg>
