<svg width="48" height="48" viewBox="0 0 48 48" fill="none" xmlns="http://www.w3.org/2000/svg">
<path d="M23.6775 2.95898L5.91895 8.87851V26.6371C5.91895 36.4459 13.8687 44.3957 23.6775 44.3957C33.4864 44.3957 41.4361 36.4459 41.4361 26.6371V8.87851L23.6775 2.95898ZM38.1064 26.6371C38.1064 34.6053 31.6458 41.0659 23.6775 41.0659C15.7093 41.0659 9.24868 34.6053 9.24868 26.6371V11.3758L23.6775 6.28872L38.1064 11.3758V26.6371Z" fill="#FEBF32"/>
<path d="M17.4993 21.9708C17.345 21.8158 17.1616 21.6928 16.9596 21.6089C16.7576 21.525 16.541 21.4818 16.3223 21.4818C16.1036 21.4818 15.887 21.525 15.685 21.6089C15.4831 21.6928 15.2996 21.8158 15.1453 21.9708C14.9903 22.1252 14.8673 22.3086 14.7834 22.5105C14.6995 22.7125 14.6562 22.9291 14.6562 23.1478C14.6562 23.3665 14.6995 23.5831 14.7834 23.7851C14.8673 23.9871 14.9903 24.1705 15.1453 24.3248L21.1296 30.3091L21.2267 30.4062C21.3727 30.5524 21.5461 30.6684 21.7369 30.7476C21.9277 30.8267 22.1323 30.8675 22.3389 30.8675C22.5456 30.8675 22.7501 30.8267 22.941 30.7476C23.1318 30.6684 23.3052 30.5524 23.4512 30.4062L33.7872 20.0701C33.9335 19.9242 34.0495 19.7508 34.1286 19.56C34.2078 19.3691 34.2485 19.1645 34.2485 18.9579C34.2485 18.7513 34.2078 18.5467 34.1286 18.3559C34.0495 18.165 33.9335 17.9916 33.7872 17.8457L33.6577 17.7162C33.5118 17.57 33.3384 17.4539 33.1476 17.3748C32.9567 17.2956 32.7521 17.2549 32.5455 17.2549C32.3389 17.2549 32.1343 17.2956 31.9435 17.3748C31.7526 17.4539 31.5792 17.57 31.4333 17.7162L22.3366 26.8082L17.4993 21.9708Z" fill="#FEBF32"/>
</svg>
