<?xml version="1.0" encoding="iso-8859-1"?>
<!-- Generator: Adobe Illustrator 19.0.0, SVG Export Plug-In . SVG Version: 6.00 Build 0)  -->
<svg version="1.1" id="Layer_1" xmlns="http://www.w3.org/2000/svg" xmlns:xlink="http://www.w3.org/1999/xlink" x="0px" y="0px"
	 viewBox="0 0 503.778 503.778" style="enable-background:new 0 0 503.778 503.778;" xml:space="preserve">
<g>
	<g>
		<g>
			<path d="M370.353,326.315c-10.718-6.119-21.815-8.041-31.232-5.422c-7.084,1.956-12.859,6.438-16.753,12.968
				c-8.561,10.24-19.179,22.209-21.756,24.072c-19.884,13.455-35.664,11.868-52.837-5.279l-96.407-96.415
				c-17.165-17.165-18.743-32.961-5.296-52.803c1.872-2.602,13.841-13.22,24.081-21.781c6.538-3.895,11.012-9.669,12.976-16.753
				c2.61-9.426,0.68-20.522-5.473-31.316c-1.46-2.484-36.016-61.012-67.861-77.874c-16.166-8.561-35.722-5.607-48.648,7.319
				L39.853,84.324c-41.967,41.967-50.587,90.355-25.617,143.822c8.385,17.937,20.816,35.252,36.965,51.46l172.2,172.771h0.008
				c13.195,13.245,27.027,23.888,41.103,31.626c23.98,13.186,46.978,19.775,68.893,19.775c31.031,0,59.896-13.22,86.285-39.609
				l21.294-21.294c12.934-12.926,15.88-32.474,7.319-48.648C431.449,362.373,372.921,327.818,370.353,326.315z"/>
			<polygon points="411.148,151.082 411.148,117.508 385.968,151.082 			"/>
			<path d="M360.788,0c-78.68,0-142.689,64.008-142.689,142.689c0,22.729,5.456,45.241,15.813,65.318l-15.595,67.072
				c-0.672,2.904,0.235,5.943,2.401,7.999c1.578,1.494,3.66,2.3,5.775,2.3c0.781,0,1.561-0.109,2.325-0.327l62.288-17.987
				c21.345,11.994,45.358,18.315,69.682,18.315c78.68,0,142.689-64.008,142.689-142.689S439.468,0,360.788,0z M352.394,201.443
				h-62.103c-5.657,0-10.584-3.425-12.548-8.729c-1.964-5.296-0.47-11.113,3.819-14.798l50.688-43.705
				c6.505-6.539,6.337-15.536,3.869-21.638c-2.954-7.302-9.258-11.726-16.879-11.852h-0.008c-14.302,0-25.592,11.298-25.592,25.18
				c0,4.633-3.76,8.393-8.393,8.393c-4.633,0-8.393-3.76-8.393-8.393c0-23.141,18.827-41.967,41.967-41.967
				c15.049,0.235,27.379,8.796,32.86,22.335c5.632,13.933,2.493,29.73-8.016,40.23l-44.225,38.157h52.954
				c4.633,0,8.393,3.76,8.393,8.393S357.027,201.443,352.394,201.443z M436.329,167.869h-8.393v25.18
				c0,4.633-3.76,8.393-8.393,8.393s-8.393-3.76-8.393-8.393v-25.18h-41.967c-3.181,0-6.085-1.796-7.512-4.642
				c-1.418-2.845-1.108-6.245,0.797-8.788l50.361-67.148c2.174-2.879,5.951-4.062,9.367-2.929c3.433,1.142,5.741,4.348,5.741,7.965
				v58.754h8.393c4.633,0,8.393,3.76,8.393,8.393S440.962,167.869,436.329,167.869z"/>
		</g>
	</g>
</g>
<g>
</g>
<g>
</g>
<g>
</g>
<g>
</g>
<g>
</g>
<g>
</g>
<g>
</g>
<g>
</g>
<g>
</g>
<g>
</g>
<g>
</g>
<g>
</g>
<g>
</g>
<g>
</g>
<g>
</g>
</svg>
