<svg width="504" height="504" viewBox="0 0 504 504" fill="none" xmlns="http://www.w3.org/2000/svg">
<g clip-path="url(#clip0_349_219)">
<rect x="264" y="70" width="194" height="162" fill="white"/>
<path d="M370.353 326.315C359.635 320.196 348.538 318.274 339.121 320.893C332.037 322.849 326.262 327.331 322.368 333.861C313.807 344.101 303.189 356.07 300.612 357.933C280.728 371.388 264.948 369.801 247.775 352.654L151.368 256.239C134.203 239.074 132.625 223.278 146.072 203.436C147.944 200.834 159.913 190.216 170.153 181.655C176.691 177.76 181.165 171.986 183.129 164.902C185.739 155.476 183.809 144.38 177.656 133.586C176.196 131.102 141.64 72.5739 109.795 55.7119C93.6288 47.1509 74.0728 50.1049 61.1468 63.0309L39.8528 84.3239C-2.11416 126.291 -10.7342 174.679 14.2358 228.146C22.6208 246.083 35.0518 263.398 51.2008 279.606L223.401 452.377H223.409C236.604 465.622 250.436 476.265 264.512 484.003C288.492 497.189 311.49 503.778 333.405 503.778C364.436 503.778 393.301 490.558 419.69 464.169L440.984 442.875C453.918 429.949 456.864 410.401 448.303 394.227C431.449 362.373 372.921 327.818 370.353 326.315Z" fill="#F7E103"/>
<path d="M411.148 151.082V117.508L385.968 151.082H411.148Z" fill="#F7E103"/>
<path d="M360.788 0C282.108 0 218.099 64.008 218.099 142.689C218.099 165.418 223.555 187.93 233.912 208.007L218.317 275.079C217.645 277.983 218.552 281.022 220.718 283.078C222.296 284.572 224.378 285.378 226.493 285.378C227.274 285.378 228.054 285.269 228.818 285.051L291.106 267.064C312.451 279.058 336.464 285.379 360.788 285.379C439.468 285.379 503.477 221.371 503.477 142.69C503.477 64.009 439.468 0 360.788 0ZM352.394 201.443H290.291C284.634 201.443 279.707 198.018 277.743 192.714C275.779 187.418 277.273 181.601 281.562 177.916L332.25 134.211C338.755 127.672 338.587 118.675 336.119 112.573C333.165 105.271 326.861 100.847 319.24 100.721H319.232C304.93 100.721 293.64 112.019 293.64 125.901C293.64 130.534 289.88 134.294 285.247 134.294C280.614 134.294 276.854 130.534 276.854 125.901C276.854 102.76 295.681 83.934 318.821 83.934C333.87 84.169 346.2 92.73 351.681 106.269C357.313 120.202 354.174 135.999 343.665 146.499L299.44 184.656H352.394C357.027 184.656 360.787 188.416 360.787 193.049C360.787 197.682 357.027 201.443 352.394 201.443ZM436.329 167.869H427.936V193.049C427.936 197.682 424.176 201.442 419.543 201.442C414.91 201.442 411.15 197.682 411.15 193.049V167.869H369.183C366.002 167.869 363.098 166.073 361.671 163.227C360.253 160.382 360.563 156.982 362.468 154.439L412.829 87.291C415.003 84.412 418.78 83.229 422.196 84.362C425.629 85.504 427.937 88.71 427.937 92.327V151.081H436.33C440.963 151.081 444.723 154.841 444.723 159.474C444.723 164.107 440.962 167.869 436.329 167.869Z" fill="#F7E103"/>
</g>
<defs>
<clipPath id="clip0_349_219">
<rect width="503.778" height="503.778" fill="white"/>
</clipPath>
</defs>
</svg>
