<svg width="26" height="26" viewBox="0 0 26 26" fill="none" xmlns="http://www.w3.org/2000/svg">
<path d="M2.05468 4.74414L5.1748 1.62695C5.3949 1.40589 5.6565 1.23049 5.94459 1.11083C6.23268 0.991173 6.54156 0.929613 6.85351 0.929688C7.48926 0.929688 8.08691 1.17871 8.53515 1.62695L11.8926 4.98437C12.1136 5.20447 12.289 5.46608 12.4087 5.75416C12.5284 6.04225 12.5899 6.35114 12.5898 6.66309C12.5898 7.29883 12.3408 7.89648 11.8926 8.34473L9.4375 10.7998C10.0122 12.0665 10.8112 13.2188 11.7959 14.2012C12.7782 15.1883 13.9304 15.9902 15.1973 16.5684L17.6523 14.1133C17.8724 13.8922 18.134 13.7168 18.4221 13.5972C18.7102 13.4775 19.0191 13.4159 19.3311 13.416C19.9668 13.416 20.5645 13.665 21.0127 14.1133L24.373 17.4678C24.5944 17.6883 24.7699 17.9504 24.8896 18.239C25.0093 18.5276 25.0707 18.837 25.0703 19.1494C25.0703 19.7852 24.8213 20.3828 24.373 20.8311L21.2588 23.9453C20.5439 24.6631 19.5566 25.0703 18.543 25.0703C18.3291 25.0703 18.124 25.0527 17.9219 25.0176C13.9727 24.3672 10.0557 22.2666 6.89453 19.1084C3.73632 15.9531 1.63867 12.0391 0.979489 8.07812C0.78027 6.86816 1.18164 5.62305 2.05468 4.74414V4.74414Z" fill="white"/>
</svg>
