<svg width="51" height="51" viewBox="0 0 51 51" fill="none" xmlns="http://www.w3.org/2000/svg">
<g clip-path="url(#clip0_47_2583)">
<path d="M17.8419 27.768C17.8419 27.768 26.4903 16.8305 15.1739 12.7133C3.85904 8.59766 9.60592 11.4859 1.00982 6.89062C1.00982 6.89062 -0.494083 9.40391 3.44967 14.482L1.12935 14.1914C1.12935 14.1914 0.497322 17.975 6.54029 18.9703L3.97701 20.0023C3.97701 20.0023 6.06998 22.3383 9.6692 21.6789L8.2481 23.2883C8.2481 23.2883 9.87545 24.8453 13.1153 23.1727L12.0161 24.3852C12.0161 24.3852 14.184 26.3453 16.5567 25.1453C16.5567 25.1453 18.5294 24.7172 17.8419 27.768Z" fill="#B3B3B3"/>
<path d="M17.8731 25.8437C17.8731 25.8437 24.7895 17.0984 15.7411 13.8062C6.69496 10.5172 11.2895 12.8258 4.41605 9.15234C4.41605 9.15234 3.21449 11.1617 6.36761 15.2234L4.51215 14.9914C4.51215 14.9914 4.00668 18.0148 8.83793 18.8117L6.78871 19.6359C6.78871 19.6359 8.46215 21.5047 11.3403 20.9766L10.2028 22.2625C10.2028 22.2625 11.5051 23.5086 14.095 22.1711L13.2168 23.1422C13.2168 23.1422 14.9496 24.7047 16.8473 23.7469C16.8473 23.7469 18.4254 23.4039 17.8731 25.8437Z" fill="#E6E6E6"/>
<path fill-rule="evenodd" clip-rule="evenodd" d="M27.6957 34.8008C26.6894 31.4937 27.691 34.8617 26.6769 31.6836C26.3597 30.6883 25.9519 29.6859 25.4277 28.8437C25.0761 28.2789 24.4714 27.7812 23.9363 27.6133C22.5269 27.1703 21.0949 26.8625 19.6675 26.6117C17.4761 26.2273 15.2777 25.9945 13.1339 25.0664C13.0269 25.0203 12.9207 24.9656 12.7214 24.8679C12.9019 24.4984 13.0363 24.1258 13.241 23.8484C13.5011 23.4968 13.7964 23.1859 14.116 22.9289C15.0636 22.1718 15.9066 21.2773 16.5738 20.1164C16.7097 19.8843 16.8777 19.6828 17.0363 19.475C17.5066 18.8703 18.0746 18.6625 18.7464 19.032C19.4347 19.414 20.0613 19.4383 20.7371 19.0992C21.5464 18.6961 22.441 18.9406 23.2964 19.2062C24.4535 19.5609 25.5925 20.0343 26.748 20.3633C27.4613 20.5617 28.191 20.607 28.9121 20.6961C29.7011 20.7843 30.3457 21.2945 30.9339 21.9726C31.7839 22.9586 32.4058 24.1836 32.7722 25.5211C33.2175 27.1453 33.1261 25.2734 32.9722 26.2203C33.3496 27.5578 32.7691 28.382 32.0574 29.2406C30.8371 30.7125 29.7449 32.3586 28.58 33.9125C28.341 34.2297 28.0371 34.4617 27.6957 34.8008ZM20.4839 21.307C20.2425 20.4148 19.9675 20.15 19.3605 20.2898C19.0613 20.357 18.7714 20.5312 18.5238 20.7453C18.3003 20.9437 18.1253 21.0109 17.8457 20.8429C17.7199 20.7695 17.5308 20.9133 17.3707 20.9586C17.4699 21.1476 17.5355 21.4258 17.6683 21.5117C17.9949 21.7226 18.1496 21.9789 18.1902 22.4617C18.2785 23.4359 18.7753 24.0797 19.5308 24.2843C20.3066 24.4922 20.9511 24.2047 21.5035 23.5789C21.5964 23.4718 21.7308 23.3195 21.8332 23.3437C22.2121 23.4383 22.5855 23.6 23.041 23.7656C22.7003 24.0429 22.4347 24.2328 22.1941 24.4648C21.7027 24.9383 21.7332 25.5031 22.316 25.9367C22.5574 26.1164 22.9496 26.2359 23.1589 26.1078C23.7034 25.7696 24.1958 25.354 24.6207 24.8742C24.8816 24.5843 25.0558 24.3703 25.4433 24.6054C25.6261 24.7187 25.8691 24.6453 26.0847 24.6515C26.1027 24.5664 26.1214 24.4742 26.141 24.3859C25.9136 24.2023 25.6964 23.9703 25.4558 23.8484C25.1964 23.7172 25.0707 23.5976 25.0496 23.1976C24.9839 22.0156 24.4269 21.289 23.5121 21.1304C22.6957 20.9929 21.9167 21.1578 21.3269 21.8297C20.991 22.2148 20.7128 22.1258 20.3621 21.9273C20.2035 21.8414 20.0363 21.7929 19.8746 21.7226C19.8855 21.6679 19.8941 21.6125 19.9066 21.5609C20.0902 21.4773 20.2753 21.3984 20.4839 21.307ZM29.6082 24.757C29.2589 24.5187 28.9214 24.2836 28.5675 24.0398C28.4699 24.5898 28.7464 24.7726 28.9996 24.9351C29.2417 25.0875 29.4894 25.1359 29.6082 24.757ZM29.648 24.0429C29.4707 23.6367 29.3152 23.2976 29.105 22.8242C28.88 23.8109 28.9308 23.9117 29.648 24.0429Z" fill="#E6A42E"/>
<path d="M29.2676 32.9898C28.2597 29.6859 29.2668 33.0508 28.2457 29.8719C27.9285 28.8766 27.5207 27.8742 26.9949 27.0351C26.6457 26.4672 26.041 25.9695 25.5051 25.8016C25.0664 25.6641 24.6241 25.5388 24.1785 25.4258C23.8666 25.7175 23.5264 25.9774 23.1629 26.2015C22.9551 26.3297 22.5629 26.214 22.3215 26.0336C21.8847 25.707 21.7566 25.307 21.9277 24.9258C21.6971 24.8819 21.4661 24.84 21.2347 24.8C19.0457 24.4156 16.8496 24.1828 14.7027 23.2547C14.5957 23.2086 14.4918 23.1539 14.291 23.0594C14.3386 22.9648 14.3824 22.8672 14.4254 22.7726C14.3269 22.8587 14.2261 22.9421 14.123 23.0226C13.7926 23.2903 13.498 23.5994 13.2465 23.9422C13.0418 24.2226 12.9074 24.5953 12.7269 24.9656C12.9254 25.0601 13.0324 25.1148 13.1394 25.1609C15.2832 26.0922 17.4816 26.3211 19.673 26.7062C21.1004 26.957 22.5324 27.268 23.9418 27.7109C24.4777 27.8789 25.0808 28.3766 25.4316 28.9383C25.9551 29.7812 26.3644 30.7859 26.6824 31.7781C27.6949 34.9562 26.6949 31.5883 27.7011 34.8953C28.0433 34.5562 28.3465 34.325 28.5855 34.0101C28.8863 33.6031 29.184 33.1976 29.4801 32.7859C29.4097 32.8523 29.3394 32.9195 29.2676 32.9898Z" fill="#C4872B"/>
<path fill-rule="evenodd" clip-rule="evenodd" d="M4.87695 36.2641C5.49648 35.5641 6.00039 34.8617 6.60508 34.3461C8.54883 32.6914 10.1871 30.5899 11.8652 28.5531C12.4559 27.8328 12.859 26.8461 13.3965 25.8906C16.9895 27.0633 20.8074 26.9867 24.4723 28.6297C23.8309 29.4391 23.1809 30.1922 22.5957 31.0235C21.8145 32.1289 21.0855 33.2953 20.3223 34.425C19.364 35.851 18.3999 37.2732 17.4301 38.6914C16.4801 40.0805 15.3324 40.3922 13.8527 39.6953C11.3959 38.539 8.82451 37.6435 6.18086 37.0235C5.7957 36.9289 5.4293 36.5938 4.87695 36.2641ZM21.8652 18.1188C22.4152 17.6461 22.9309 17.111 23.5145 16.7141C24.6035 15.9813 25.5145 14.9797 26.3973 13.9047C26.9496 13.2266 27.573 12.6375 28.1832 12.036C28.5184 11.7031 28.8465 11.6883 29.2918 12.0235C30.9426 13.2664 32.7395 13.6875 34.5488 13.9571C35.3668 14.0789 36.1871 14.1524 37.0879 14.2563C36.884 14.5063 36.7301 14.7172 36.559 14.9008C34.9059 16.6875 33.2488 18.4649 31.5965 20.2508C31.1832 20.7 30.7363 20.7391 30.1723 20.5774C27.673 19.8539 25.1629 19.1969 22.659 18.5133C22.4113 18.4461 22.166 18.3547 21.9199 18.275L21.8652 18.1188Z" fill="#4FBA80"/>
<path fill-rule="evenodd" clip-rule="evenodd" d="M5.46598 36.9477C7.15504 37.1063 8.77613 37.8398 10.4066 38.4836C11.5613 38.9391 12.7183 39.4063 13.8738 39.8555C15.13 40.3469 16.1964 39.993 17.03 38.8477C18.1506 37.3055 19.2455 35.7448 20.3144 34.1664C21.1269 32.9633 21.8769 31.6992 22.6738 30.4867C23.205 29.6773 23.8488 29.0852 24.7285 28.957C24.9449 29.4766 24.7441 29.8211 24.5105 30.1359C23.7214 31.1805 22.9089 32.1875 22.1433 33.2602C20.8925 35.0039 19.6925 36.8086 18.4379 38.5461C17.8543 39.3492 17.2089 40.0859 16.5504 40.7906C16.0019 41.3805 15.2918 41.4109 14.5894 41.2336C13.8535 41.0469 13.13 40.7234 12.3972 40.5156C11.1511 40.1586 9.89957 39.8438 8.64879 39.5078C7.91676 39.3047 7.17457 39.1398 6.44957 38.8719C5.74723 38.6117 5.42926 37.9305 5.46285 36.9477" fill="#338455"/>
<path fill-rule="evenodd" clip-rule="evenodd" d="M7.56128 40.7188C9.71675 41.2656 11.8683 41.7297 13.998 42.3836C15.0027 42.6891 15.83 42.6188 16.4988 41.7453C17.5707 40.35 18.5957 38.8969 19.6394 37.4672C21.2175 35.311 22.7878 33.1547 24.3738 31.0086C24.5769 30.7274 24.8167 30.4922 25.0378 30.236C25.4652 30.9992 25.4683 31.311 25.0636 31.8914C22.7722 35.2047 20.48 38.5203 18.173 41.8188C17.8433 42.2953 17.4433 42.6891 17.0675 43.1102C16.5238 43.718 15.8582 43.9196 15.1457 43.5719C13.5347 42.7828 11.8597 42.8266 10.2246 42.3321C9.65503 42.1602 9.06128 42.2274 8.48081 42.1086C7.86284 41.9828 7.58081 41.543 7.56284 40.7188" fill="#338455"/>
<path fill-rule="evenodd" clip-rule="evenodd" d="M6.541 38.9765C6.77304 38.9922 7.00819 38.9766 7.24022 39.0281C9.24647 39.4797 11.2652 39.782 13.2191 40.7898C14.1168 41.2547 15.1121 41.532 15.9933 41.0219C16.5449 40.7015 17.048 40.1797 17.4754 39.6203C19.0379 37.5594 20.566 35.4523 22.0957 33.3547C22.7473 32.4633 23.3519 31.5164 24.0238 30.6523C24.3426 30.2398 24.7676 29.9687 25.1465 29.632C25.198 29.6961 25.2504 29.7601 25.3019 29.8219C25.1801 30.1148 25.0957 30.457 24.9277 30.6953C22.7782 33.7715 20.6128 36.8367 18.4316 39.8906C17.8149 40.7447 17.1443 41.5586 16.4238 42.3273C16.184 42.5867 15.7598 42.7578 15.4457 42.6781C12.7965 42 10.1566 41.2555 7.51522 40.5312C6.90429 40.3664 6.53007 39.9297 6.541 38.9797" fill="#338455"/>
<path fill-rule="evenodd" clip-rule="evenodd" d="M9.07689 41.5312C11.1456 42.0687 13.1808 42.582 15.2089 43.1406C15.9347 43.3422 16.5699 43.2476 17.0613 42.5914C18.4878 40.6914 19.9167 38.7898 21.312 36.85C22.448 35.2656 23.5324 33.6156 24.6558 32.0101C24.8972 31.6625 25.198 31.375 25.4878 31.0422C25.9503 32.1109 25.9534 32.1141 25.3933 32.7398C23.5167 34.825 22.0464 37.3836 20.4659 39.818C19.4761 41.3422 18.4019 42.7648 17.3699 44.2398C17.1808 44.5148 16.9683 44.5422 16.6722 44.4992C15.0034 44.2555 13.3331 44.0875 11.6675 43.8281C10.9144 43.7125 10.1667 43.4492 9.4136 43.257C8.99954 43.15 8.83313 42.8844 8.97532 42.357C9.03157 42.1539 9.03157 41.925 9.07689 41.5312Z" fill="#338455"/>
<path fill-rule="evenodd" clip-rule="evenodd" d="M10.5753 44C10.9019 43.9633 11.2261 43.8812 11.555 43.8992C12.3706 43.9476 13.1948 44.0883 14.0089 44.1039C14.7066 44.1164 15.4003 43.982 16.098 43.9601C16.5792 43.9445 17.0777 43.9234 17.548 44.0734C18.78 44.4641 19.6261 43.9664 20.1683 42.6141C21.4097 39.5109 23.4316 37.2578 25.1855 34.7234C25.4738 34.3055 25.7823 33.9055 26.0784 33.4992C26.6253 34.0766 26.6831 34.7875 26.3152 35.3406C25.0909 37.1695 23.9105 39.0508 22.6675 40.8562C21.7296 42.2052 20.7505 43.5251 19.7316 44.8141C19.1863 45.507 18.4691 45.8391 17.6519 45.693C15.4519 45.2844 13.2519 44.8445 11.055 44.407C10.9003 44.3797 10.7511 44.2758 10.5995 44.2086C10.5902 44.1414 10.5808 44.0742 10.5753 44.0039" fill="#338455"/>
<path fill-rule="evenodd" clip-rule="evenodd" d="M17.3691 44.0078C19.502 40.7703 21.5863 37.5649 23.7145 34.4102C24.2277 33.6492 24.8699 33.0391 25.473 32.3945C25.6105 32.2508 25.9754 32.1531 25.9949 32.193C26.1473 32.5508 26.441 32.9078 26.1777 33.3445C25.7309 34.0805 25.3137 34.8531 24.8434 35.5617C24.0004 36.8383 23.0996 38.0477 22.277 39.3422C21.6098 40.3961 20.9684 41.4922 20.4098 42.6524C19.848 43.825 19.1379 44.4352 17.9879 44.0633C17.8074 44.0047 17.6168 44.0258 17.3691 44.0078Z" fill="#338455"/>
<path fill-rule="evenodd" clip-rule="evenodd" d="M24.7317 28.9531C23.852 29.0812 23.2074 29.6734 22.677 30.4828C21.8793 31.6953 21.1254 32.9594 20.3176 34.1625C19.2489 35.741 18.1539 37.3017 17.0332 38.8438C16.6653 39.35 16.252 39.7047 15.7887 39.8977C15.9043 40.3008 16.0364 40.7 16.177 41.0945C16.3114 41.0172 16.4395 40.9164 16.559 40.7852C17.2168 40.0805 17.8629 39.3437 18.4465 38.5406C19.7012 36.8031 20.902 34.9992 22.152 33.2547C22.9168 32.1828 23.7301 31.175 24.5192 30.1305C24.752 29.8172 24.9535 29.4719 24.7364 28.9531M25.0371 30.2352C24.816 30.4922 24.5762 30.7266 24.3731 31.0078C22.7918 33.1547 21.2168 35.3102 19.6387 37.4664C18.5926 38.8953 17.5684 40.3484 16.4981 41.7445C16.4824 41.7656 16.4645 41.7844 16.4496 41.8023C16.6395 42.2508 16.8465 42.682 17.0754 43.0969C17.4481 42.682 17.8449 42.2875 18.1715 41.8172C20.4785 38.5187 22.7707 35.2031 25.0621 31.8898C25.466 31.3102 25.4629 30.9984 25.0356 30.2352" fill="#276C43"/>
<path fill-rule="evenodd" clip-rule="evenodd" d="M25.1473 29.6328C24.7684 29.9688 24.3442 30.2406 24.0246 30.6531C23.3528 31.5172 22.7481 32.4641 22.0965 33.3555C20.5668 35.4563 19.0395 37.5641 17.4762 39.6211C17.0856 40.1375 16.6215 40.6195 16.1207 40.9399C16.2614 41.3492 16.4215 41.7461 16.5957 42.1367C17.2528 41.4245 17.8661 40.6731 18.4324 39.8867C20.6129 36.8422 22.7746 33.7672 24.9285 30.6914C25.0965 30.4531 25.1809 30.111 25.3028 29.818C25.25 29.756 25.1982 29.6932 25.1473 29.6297M25.4871 31.0445C25.1973 31.3774 24.8965 31.6641 24.6551 32.0125C23.5317 33.6188 22.4473 35.268 21.3114 36.8524C19.916 38.7914 18.4871 40.6938 17.0606 42.5938C17.0119 42.6573 16.96 42.7183 16.9051 42.7766C17.1129 43.1797 17.3418 43.568 17.5918 43.9313C18.5535 42.5664 19.5473 41.2383 20.4653 39.8203C22.0457 37.3867 23.516 34.8274 25.3926 32.7422C25.9535 32.1164 25.9504 32.1133 25.4871 31.0445ZM26.0785 33.4922C25.7824 33.8992 25.4739 34.2985 25.1856 34.7164C23.4309 37.2539 21.4098 39.5078 20.1684 42.607C19.6543 43.8953 18.8645 44.4055 17.7239 44.1156C18.0809 44.6149 18.4937 45.0717 18.9543 45.4774C19.2387 45.3219 19.5012 45.093 19.7317 44.8031C20.7506 43.5143 21.7297 42.1944 22.6676 40.8453C23.9106 39.0406 25.091 37.1594 26.3153 35.3297C26.6832 34.7766 26.6254 34.0656 26.0785 33.4883" fill="#276C43"/>
<path fill-rule="evenodd" clip-rule="evenodd" d="M25.9957 32.193C25.9761 32.1532 25.6105 32.2516 25.4738 32.3946C24.8707 33.0391 24.2277 33.6492 23.7152 34.4102C21.6316 37.4977 19.5894 40.6367 17.5043 43.8008C17.5527 43.8742 17.6019 43.9477 17.6511 44.0172C17.7738 44.0203 17.8832 44.0266 17.9902 44.0602C19.1402 44.4328 19.8496 43.8219 20.4121 42.6492C20.9707 41.4891 21.6121 40.3922 22.2793 39.3391C23.1019 38.0446 24.0035 36.8352 24.8457 35.5586C25.316 34.85 25.7332 34.0774 26.1801 33.3414C26.4418 32.9055 26.1488 32.5477 25.9957 32.1907M31.734 21.5696C31.5355 21.3102 31.3644 21.0867 31.1574 20.8188C31.3527 20.5867 31.5285 20.361 31.716 20.1469C33.2152 18.4547 34.7269 16.7907 36.1972 15.0657C36.5801 14.6141 36.959 14.593 37.3988 14.7602C37.6551 15.6305 37.4691 16.2383 36.9527 16.7203C35.2519 18.3024 33.5699 19.9086 31.8808 21.5055C31.8465 21.5391 31.7949 21.5414 31.734 21.5696Z" fill="#276C43"/>
<path fill-rule="evenodd" clip-rule="evenodd" d="M32.0605 22.1797C31.7449 21.0196 31.7418 21.0164 32.3683 20.4391C33.9129 19.0127 35.4653 17.5947 37.0254 16.1852C37.1613 16.0633 37.3699 16.0297 37.5488 16.0383C38.0918 16.0563 38.3379 16.5453 38.0355 17.1039C37.7941 17.5649 37.4847 18.011 37.123 18.2946C35.8144 19.3203 34.4699 20.2703 33.1449 21.2594C32.9269 21.4243 32.73 21.6407 32.5144 21.8243C32.3707 21.9508 32.2183 22.0578 32.0605 22.1797ZM38.1074 19.0102C38.3933 19.5602 38.273 20.0422 37.9668 20.3625C37.3652 20.9946 36.7175 21.5657 36.0816 22.1461C35.1105 23.0313 34.13 23.9078 33.1543 24.7813C33.0839 24.8453 32.9988 24.8883 32.8824 24.968C32.7816 24.4735 32.6582 24.0243 32.6074 23.5719C32.5863 23.4039 32.6957 23.1571 32.8121 23.0586C33.5496 22.4172 34.2902 21.7789 35.0566 21.1993C36.0464 20.4547 37.0605 19.7586 38.1074 19.0102Z" fill="#276C43"/>
<path fill-rule="evenodd" clip-rule="evenodd" d="M31.7699 21.6516C31.5395 20.9953 31.6692 20.5524 32.0051 20.2196C33.0559 19.1782 34.1153 18.1524 35.166 17.111C35.6082 16.6742 36.052 16.2375 36.4668 15.761C36.8653 15.3055 37.1387 15.3032 37.6551 15.8953C36.1738 18.5766 33.9387 20.0211 31.7699 21.6516ZM32.3293 22.7633C32.2106 22.3938 32.1184 22.1102 31.9879 21.6946C33.9379 20.1742 35.9098 18.6321 37.9043 17.0805L38.3504 17.6211C36.7449 20.0578 34.4942 21.2672 32.3293 22.7633Z" fill="#276C43"/>
<path fill-rule="evenodd" clip-rule="evenodd" d="M32.7012 23.7133C32.6098 23.3922 32.5301 23.1024 32.4277 22.7391C33.4371 21.9789 34.4566 21.2555 35.4387 20.4609C36.3457 19.725 37.2129 18.9102 38.1059 18.1461C38.2199 18.0516 38.4879 17.9781 38.5129 18.0274C38.641 18.2781 38.8793 18.4914 38.6715 18.8766C38.1277 19.9086 37.3707 20.6047 36.5371 21.1758C35.2754 22.0336 33.9988 22.8547 32.7012 23.7133Z" fill="#276C43"/>
<path fill-rule="evenodd" clip-rule="evenodd" d="M10.7794 44.1508C12.4684 44.7711 14.1856 44.2852 15.8512 45.168C15.2676 45.15 14.6848 45.1469 14.1036 45.1102C13.1309 45.0524 12.1614 44.9664 11.1887 44.9149C10.8036 44.8938 10.6637 44.6883 10.7794 44.1508Z" fill="#338455"/>
<path fill-rule="evenodd" clip-rule="evenodd" d="M20.484 21.307C20.2746 21.3985 20.0903 21.4781 19.9067 21.5602C19.8942 21.6117 19.8856 21.6672 19.8746 21.7219C20.0364 21.7922 20.2028 21.8406 20.3621 21.9266C20.7129 22.125 20.991 22.2133 21.327 21.8289C21.916 21.157 22.6949 20.9922 23.5121 21.1297C24.4262 21.2891 24.984 22.0156 25.0496 23.1969C25.0707 23.5969 25.1965 23.7164 25.4559 23.8477C25.6973 23.9695 25.9137 24.2016 26.141 24.3852C26.1215 24.4735 26.1028 24.5649 26.0848 24.6508C25.8699 24.6445 25.627 24.718 25.4434 24.6047C25.0551 24.3695 24.8817 24.5836 24.6207 24.8735C24.196 25.3535 23.7036 25.7691 23.159 26.107C22.9496 26.236 22.5574 26.1164 22.316 25.936C21.7324 25.5024 21.702 24.9375 22.1942 24.4641C22.4356 24.232 22.7012 24.0422 23.041 23.7649C22.5856 23.6 22.2121 23.4383 21.8332 23.343C21.7309 23.3188 21.5965 23.4711 21.5035 23.5781C20.9504 24.2039 20.3067 24.4914 19.5309 24.2836C18.7754 24.0789 18.2785 23.4352 18.1903 22.461C18.1489 21.9781 17.9949 21.7219 17.6684 21.511C17.5356 21.4258 17.4699 21.1477 17.3707 20.9578C17.5309 20.9117 17.7199 20.7688 17.8457 20.8422C18.1246 21.0102 18.3004 20.943 18.5239 20.7445C18.7707 20.5305 19.0614 20.3563 19.3606 20.2891C19.9684 20.1492 20.2434 20.4149 20.484 21.307ZM22.4934 22.8774L23.791 23.1797C23.4098 22.3313 23.2645 22.2945 22.4934 22.8774ZM19.516 22.3461C19.5942 22.6485 19.6449 22.8531 19.6934 23.0578L20.2754 22.8656C20.2614 22.8172 20.2465 22.7742 20.2356 22.7281L19.516 22.3461Z" fill="white"/>
<path fill-rule="evenodd" clip-rule="evenodd" d="M29.6074 24.757C29.4887 25.1359 29.241 25.0867 28.9988 24.9344C28.7457 24.7719 28.4691 24.5891 28.5668 24.0391C28.9207 24.2836 29.2582 24.5187 29.6074 24.757ZM29.6465 24.043C28.9293 23.9117 28.8793 23.8109 29.1035 22.8242C29.3137 23.2977 29.4691 23.6367 29.6465 24.043ZM22.4902 22.8789C23.2613 22.2953 23.4066 22.332 23.7879 23.1812L22.4902 22.8789ZM19.5137 22.3477L20.2332 22.7297C20.2441 22.7758 20.259 22.818 20.273 22.8672L19.691 23.0594C19.6341 22.8216 19.575 22.5843 19.5137 22.3477Z" fill="#E6A42E"/>
<path d="M29.4738 32.3063C29.4738 32.3063 21.5988 18.4547 34.3003 15.4133C46.9996 12.3719 40.4457 14.8359 50.2847 10.8328C50.2847 10.8328 51.5746 13.9477 46.6753 19.1906L49.2074 19.2031C49.2074 19.2031 49.3933 23.643 42.7668 23.8875L45.3878 25.45C45.3878 25.45 42.8332 27.8227 39.0519 26.5281L40.3699 28.5899C40.3699 28.5899 38.4191 30.1352 35.1543 27.7313L36.1777 29.2891C36.1777 29.2891 33.591 31.2156 31.1972 29.4844C31.1972 29.4844 29.1324 28.7031 29.4738 32.3055" fill="#B3B3B3"/>
<path d="M29.6855 30.0922C29.6855 30.0922 23.3886 19.0195 33.5425 16.5859C43.6957 14.1523 38.459 16.1219 46.323 12.9242C46.323 12.9242 47.3535 15.4133 43.4379 19.6054L45.4605 19.6148C45.4605 19.6148 45.6105 23.1633 40.3136 23.3586L42.4105 24.6109C42.4105 24.6109 40.3675 26.507 37.3418 25.475L38.3988 27.1211C38.3988 27.1211 36.8379 28.3578 34.2269 26.4375L35.0441 27.6804C35.0441 27.6804 32.9769 29.2226 31.0636 27.839C31.0636 27.839 29.4105 27.2094 29.6855 30.0922Z" fill="#E6E6E6"/>
</g>
<defs>
<clipPath id="clip0_47_2583">
<rect width="50" height="50" fill="white" transform="translate(0.568359 0.640625)"/>
</clipPath>
</defs>
</svg>
