<svg width="80" height="80" viewBox="0 0 80 80" fill="none" xmlns="http://www.w3.org/2000/svg">
<g clip-path="url(#clip0_311_478)">
<path d="M21.7393 0H6.08727C4.64664 0 3.47852 1.16797 3.47852 2.60875V77.3914C3.47852 78.832 4.64648 80.0002 6.08727 80.0002H21.7393C23.1799 80.0002 24.348 78.8322 24.348 77.3914V2.60875C24.348 1.16797 23.1801 0 21.7393 0ZM19.1307 74.7827H8.69586V5.21734H19.1307V74.7827Z" fill="#FEBF32"/>
<path d="M47.8259 41.739H32.1737C30.7331 41.739 29.5649 42.907 29.5649 44.3478V77.3912C29.5649 78.8318 30.7329 80 32.1737 80H47.8259C49.2665 80 50.4346 78.832 50.4346 77.3912V44.3478C50.4346 42.9071 49.2665 41.739 47.8259 41.739ZM45.2171 74.7826H34.7823V46.9565H45.2171V74.7826Z" fill="#FEBF32"/>
<path d="M73.9131 20.8696H58.2611C56.8205 20.8696 55.6523 22.0376 55.6523 23.4784V77.3913C55.6523 78.832 56.8203 80.0001 58.2611 80.0001H73.9133C75.3539 80.0001 76.522 78.8321 76.522 77.3913V23.4784C76.5219 22.0376 75.3539 20.8696 73.9131 20.8696ZM71.3045 74.7828H60.8697V26.0871H71.3045V74.7828Z" fill="#FEBF32"/>
</g>
<defs>
<clipPath id="clip0_311_478">
<rect width="80" height="80" fill="white"/>
</clipPath>
</defs>
</svg>
