<svg width="29" height="30" viewBox="0 0 29 30" fill="none" xmlns="http://www.w3.org/2000/svg">
<path d="M21.9518 5.75028C21.6149 5.75028 21.2856 5.85018 21.0055 6.03735C20.7253 6.22452 20.507 6.49055 20.3781 6.8018C20.2492 7.11305 20.2154 7.45555 20.2812 7.78597C20.3469 8.11639 20.5091 8.41991 20.7473 8.65813C20.9856 8.89635 21.2891 9.05858 21.6195 9.12431C21.9499 9.19003 22.2924 9.1563 22.6037 9.02737C22.9149 8.89845 23.1809 8.68012 23.3681 8.4C23.5553 8.11989 23.6552 7.79055 23.6552 7.45366C23.6552 7.00189 23.4757 6.56863 23.1563 6.24919C22.8368 5.92974 22.4036 5.75028 21.9518 5.75028V5.75028ZM28.4814 9.18543C28.4538 8.00768 28.2332 6.84243 27.8285 5.73608C27.4675 4.78948 26.9058 3.93232 26.1819 3.2236C25.479 2.49601 24.6198 1.9378 23.6694 1.59119C22.566 1.17409 21.3994 0.948465 20.22 0.924036C18.7154 0.838867 18.2328 0.838867 14.3718 0.838867C10.5108 0.838867 10.0282 0.838867 8.5235 0.924036C7.34413 0.948465 6.17758 1.17409 5.07416 1.59119C4.12548 1.94131 3.26706 2.49904 2.56167 3.2236C1.83408 3.92649 1.27587 4.78565 0.929267 5.73608C0.512167 6.83951 0.286539 8.00605 0.26211 9.18543C0.176941 10.6901 0.176941 11.1727 0.176941 15.0337C0.176941 18.8947 0.176941 19.3773 0.26211 20.882C0.286539 22.0613 0.512167 23.2279 0.929267 24.3313C1.27587 25.2817 1.83408 26.1409 2.56167 26.8438C3.26706 27.5684 4.12548 28.1261 5.07416 28.4762C6.17758 28.8933 7.34413 29.1189 8.5235 29.1434C10.0282 29.2285 10.5108 29.2285 14.3718 29.2285C18.2328 29.2285 18.7154 29.2285 20.22 29.1434C21.3994 29.1189 22.566 28.8933 23.6694 28.4762C24.6198 28.1296 25.479 27.5714 26.1819 26.8438C26.909 26.1377 27.4712 25.2798 27.8285 24.3313C28.2332 23.225 28.4538 22.0597 28.4814 20.882C28.4814 19.3773 28.5666 18.8947 28.5666 15.0337C28.5666 11.1727 28.5666 10.6901 28.4814 9.18543V9.18543ZM25.9264 20.7116C25.916 21.6127 25.7528 22.5054 25.4437 23.3519C25.2171 23.9696 24.8531 24.5278 24.3791 24.9843C23.9187 25.4534 23.3617 25.8167 22.7467 26.0489C21.9003 26.358 21.0075 26.5212 20.1065 26.5315C18.687 26.6025 18.1618 26.6167 14.4285 26.6167C10.6953 26.6167 10.1701 26.6167 8.75062 26.5315C7.81502 26.549 6.88342 26.405 5.99682 26.1057C5.40884 25.8616 4.87735 25.4992 4.43539 25.041C3.96425 24.585 3.60477 24.0264 3.38497 23.4086C3.03841 22.5501 2.8462 21.637 2.81718 20.7116C2.81718 19.2921 2.73201 18.7669 2.73201 15.0337C2.73201 11.3005 2.73201 10.7752 2.81718 9.35576C2.82354 8.4346 2.9917 7.52171 3.314 6.65875C3.56389 6.0596 3.94746 5.52551 4.43539 5.09732C4.86665 4.60925 5.39963 4.22163 5.99682 3.96173C6.86207 3.6495 7.77401 3.48632 8.69384 3.47911C10.1133 3.47911 10.6385 3.39394 14.3718 3.39394C18.105 3.39394 18.6302 3.39394 20.0497 3.47911C20.9507 3.48944 21.8435 3.65263 22.6899 3.96173C23.335 4.20113 23.9139 4.59034 24.3791 5.09732C24.8443 5.53335 25.2078 6.06644 25.4437 6.65875C25.7592 7.52312 25.9225 8.43563 25.9264 9.35576C25.9973 10.7752 26.0115 11.3005 26.0115 15.0337C26.0115 18.7669 25.9973 19.2921 25.9264 20.7116ZM14.3718 7.75175C12.9321 7.75455 11.5257 8.18402 10.33 8.98587C9.13437 9.78773 8.20323 10.926 7.65426 12.2568C7.10528 13.5877 6.9631 15.0514 7.24567 16.463C7.52825 17.8746 8.2229 19.1708 9.24187 20.1878C10.2608 21.2048 11.5584 21.8969 12.9705 22.1767C14.3827 22.4566 15.8461 22.3115 17.1759 21.76C18.5057 21.2084 19.6421 20.275 20.4417 19.0778C21.2412 17.8806 21.6679 16.4733 21.6679 15.0337C21.6698 14.0757 21.4822 13.1268 21.1161 12.2415C20.7499 11.3562 20.2123 10.5521 19.5342 9.87537C18.8562 9.19862 18.051 8.6626 17.165 8.29815C16.2791 7.9337 15.3298 7.748 14.3718 7.75175V7.75175ZM14.3718 19.7606C13.4369 19.7606 12.523 19.4833 11.7457 18.964C10.9683 18.4446 10.3625 17.7063 10.0047 16.8426C9.64694 15.9789 9.55333 15.0285 9.73572 14.1115C9.9181 13.1946 10.3683 12.3524 11.0294 11.6913C11.6904 11.0302 12.5327 10.58 13.4496 10.3976C14.3665 10.2153 15.3169 10.3089 16.1807 10.6666C17.0444 11.0244 17.7826 11.6303 18.302 12.4076C18.8214 13.1849 19.0986 14.0988 19.0986 15.0337C19.0986 15.6544 18.9764 16.2691 18.7388 16.8426C18.5013 17.4161 18.1531 17.9372 17.7142 18.3761C17.2752 18.815 16.7542 19.1632 16.1807 19.4008C15.6072 19.6383 14.9925 19.7606 14.3718 19.7606V19.7606Z" fill="#ED017F"/>
</svg>
