<svg width="29" height="30" viewBox="0 0 29 30" fill="none" xmlns="http://www.w3.org/2000/svg">
<path d="M26.6154 0.838822H2.56937C2.29907 0.835068 2.03067 0.884596 1.77952 0.984579C1.52836 1.08456 1.29936 1.23304 1.10559 1.42154C0.911825 1.61003 0.757087 1.83485 0.650215 2.08315C0.543342 2.33146 0.48643 2.59838 0.482727 2.86868V27.1986C0.48643 27.4689 0.543342 27.7358 0.650215 27.9841C0.757087 28.2324 0.911825 28.4573 1.10559 28.6458C1.29936 28.8343 1.52836 28.9827 1.77952 29.0827C2.03067 29.1827 2.29907 29.2322 2.56937 29.2285H26.6154C26.8857 29.2322 27.1541 29.1827 27.4053 29.0827C27.6564 28.9827 27.8854 28.8343 28.0792 28.6458C28.2729 28.4573 28.4277 28.2324 28.5346 27.9841C28.6414 27.7358 28.6983 27.4689 28.702 27.1986V2.86868C28.6983 2.59838 28.6414 2.33146 28.5346 2.08315C28.4277 1.83485 28.2729 1.61003 28.0792 1.42154C27.8854 1.23304 27.6564 1.08456 27.4053 0.984579C27.1541 0.884596 26.8857 0.835068 26.6154 0.838822V0.838822ZM9.04221 24.601H4.78376V11.8256H9.04221V24.601ZM6.91298 10.0371C6.32569 10.0371 5.76245 9.80377 5.34717 9.38849C4.93189 8.97321 4.69859 8.40997 4.69859 7.82268C4.69859 7.23538 4.93189 6.67214 5.34717 6.25686C5.76245 5.84159 6.32569 5.60828 6.91298 5.60828C7.22484 5.57292 7.54065 5.60382 7.83973 5.69897C8.13881 5.79411 8.41443 5.95136 8.64852 6.16041C8.88262 6.36946 9.06993 6.6256 9.19817 6.91205C9.32641 7.19851 9.3927 7.50882 9.3927 7.82268C9.3927 8.13653 9.32641 8.44684 9.19817 8.7333C9.06993 9.01976 8.88262 9.2759 8.64852 9.48495C8.41443 9.694 8.13881 9.85124 7.83973 9.94639C7.54065 10.0415 7.22484 10.0724 6.91298 10.0371V10.0371ZM24.401 24.601H20.1426V17.7449C20.1426 16.0273 19.5322 14.9059 17.985 14.9059C17.5061 14.9094 17.0398 15.0596 16.649 15.3362C16.2581 15.6129 15.9615 16.0027 15.7989 16.4531C15.6879 16.7868 15.6397 17.1381 15.657 17.4894V24.5868H11.3986C11.3986 24.5868 11.3986 12.9754 11.3986 11.8114H15.657V13.6142C16.0439 12.9429 16.6065 12.3899 17.2844 12.0147C17.9622 11.6395 18.7296 11.4563 19.5038 11.4849C22.3428 11.4849 24.401 13.3161 24.401 17.248V24.601Z" fill="#4A71FB"/>
</svg>
