<svg width="18" height="24" viewBox="0 0 18 24" fill="none" xmlns="http://www.w3.org/2000/svg">
<path d="M9 23.25C7.42118 21.9033 5.95774 20.4269 4.625 18.8362C2.625 16.4475 0.250001 12.89 0.250001 9.49999C0.249134 7.76869 0.761886 6.07605 1.72337 4.63628C2.68485 3.1965 4.05184 2.07432 5.65134 1.41174C7.25083 0.749164 9.01094 0.575981 10.7089 0.914108C12.4069 1.25223 13.9663 2.08647 15.19 3.31124C16.0047 4.12232 16.6504 5.08691 17.0899 6.14921C17.5293 7.21151 17.7537 8.35041 17.75 9.49999C17.75 12.89 15.375 16.4475 13.375 18.8362C12.0423 20.4269 10.5788 21.9033 9 23.25ZM9 5.74999C8.00544 5.74999 7.05161 6.14508 6.34835 6.84834C5.64509 7.5516 5.25 8.50543 5.25 9.49999C5.25 10.4946 5.64509 11.4484 6.34835 12.1516C7.05161 12.8549 8.00544 13.25 9 13.25C9.99456 13.25 10.9484 12.8549 11.6517 12.1516C12.3549 11.4484 12.75 10.4946 12.75 9.49999C12.75 8.50543 12.3549 7.5516 11.6517 6.84834C10.9484 6.14508 9.99456 5.74999 9 5.74999Z" fill="white"/>
</svg>
