<svg width="11" height="11" viewBox="0 0 11 11" fill="none" xmlns="http://www.w3.org/2000/svg">
<path d="M5.45116 9.26365C3.3191 9.26365 1.59082 7.53538 1.59082 5.40331C1.59082 3.27124 3.3191 1.54297 5.45116 1.54297C7.58323 1.54297 9.31151 3.27124 9.31151 5.40331C9.31151 7.53538 7.58323 9.26365 5.45116 9.26365ZM5.45116 8.49159C6.27022 8.49159 7.05574 8.16621 7.6349 7.58705C8.21407 7.00789 8.53944 6.22237 8.53944 5.40331C8.53944 4.58425 8.21407 3.79874 7.6349 3.21957C7.05574 2.64041 6.27022 2.31504 5.45116 2.31504C4.6321 2.31504 3.84659 2.64041 3.26742 3.21957C2.68826 3.79874 2.36289 4.58425 2.36289 5.40331C2.36289 6.22237 2.68826 7.00789 3.26742 7.58705C3.84659 8.16621 4.6321 8.49159 5.45116 8.49159ZM5.06513 3.47314H5.8372V4.24521H5.06513V3.47314ZM5.06513 5.01728H5.8372V7.33348H5.06513V5.01728Z" fill="#FEBF32"/>
</svg>
