<svg width="70" height="70" viewBox="0 0 70 70" fill="none" xmlns="http://www.w3.org/2000/svg">
<path d="M65 50H62.5V42.5C62.5 41.1739 61.9732 39.9021 61.0355 38.9645C60.0979 38.0268 58.8261 37.5 57.5 37.5H37.5V30H45C46.3261 30 47.5979 29.4732 48.5355 28.5355C49.4732 27.5979 50 26.3261 50 25V5C50 3.67392 49.4732 2.40215 48.5355 1.46447C47.5979 0.526784 46.3261 0 45 0H25C23.6739 0 22.4021 0.526784 21.4645 1.46447C20.5268 2.40215 20 3.67392 20 5V25C20 26.3261 20.5268 27.5979 21.4645 28.5355C22.4021 29.4732 23.6739 30 25 30H32.5V37.5H12.5C11.1739 37.5 9.90215 38.0268 8.96447 38.9645C8.02678 39.9021 7.5 41.1739 7.5 42.5V50H5C3.67392 50 2.40215 50.5268 1.46447 51.4645C0.526784 52.4021 0 53.6739 0 55V65C0 66.3261 0.526784 67.5978 1.46447 68.5355C2.40215 69.4732 3.67392 70 5 70H15C16.3261 70 17.5979 69.4732 18.5355 68.5355C19.4732 67.5978 20 66.3261 20 65V55C20 53.6739 19.4732 52.4021 18.5355 51.4645C17.5979 50.5268 16.3261 50 15 50H12.5V42.5H32.5V50H30C28.6739 50 27.4021 50.5268 26.4645 51.4645C25.5268 52.4021 25 53.6739 25 55V65C25 66.3261 25.5268 67.5978 26.4645 68.5355C27.4021 69.4732 28.6739 70 30 70H40C41.3261 70 42.5979 69.4732 43.5355 68.5355C44.4732 67.5978 45 66.3261 45 65V55C45 53.6739 44.4732 52.4021 43.5355 51.4645C42.5979 50.5268 41.3261 50 40 50H37.5V42.5H57.5V50H55C53.6739 50 52.4021 50.5268 51.4645 51.4645C50.5268 52.4021 50 53.6739 50 55V65C50 66.3261 50.5268 67.5978 51.4645 68.5355C52.4021 69.4732 53.6739 70 55 70H65C66.3261 70 67.5978 69.4732 68.5355 68.5355C69.4732 67.5978 70 66.3261 70 65V55C70 53.6739 69.4732 52.4021 68.5355 51.4645C67.5978 50.5268 66.3261 50 65 50ZM25 5H45V25H25V5ZM15 65H5V55H15V65ZM40 65H30V55H40V65ZM65 65H55V55H65V65Z" fill="#FEBF32"/>
</svg>
