<svg width="80" height="80" viewBox="0 0 80 80" fill="none" xmlns="http://www.w3.org/2000/svg">
<path d="M79.9998 56.4954C79.9998 51.8141 78.598 47.294 75.9455 43.4235C74.0376 40.6396 71.5808 38.3278 68.7338 36.6098C72.0858 33.4354 74.183 28.9488 74.183 23.9787C74.183 14.3817 66.3751 6.57373 56.7783 6.57373C51.0876 6.57373 45.7569 9.38814 42.519 14.0082C41.6962 13.8883 40.8556 13.8237 39.9999 13.8237C39.1442 13.8237 38.3038 13.8885 37.481 14.0082C34.2429 9.38814 28.9121 6.57373 23.2217 6.57373C13.6247 6.57373 5.81675 14.3817 5.81675 23.9787C5.81675 28.9488 7.91403 33.4354 11.2662 36.6098C8.41896 38.3276 5.96215 40.6396 4.05452 43.4233C1.40205 47.294 0 51.8141 0 56.4954V66.1763H16.7784V73.4261H63.2218V66.1763H80V56.4954H79.9998ZM56.7783 10.8694C64.0068 10.8694 69.8875 16.7502 69.8875 23.9789C69.8875 31.2076 64.0068 37.0883 56.7783 37.0883C56.6488 37.0883 56.5193 37.0864 56.3896 37.0825C56.3995 37.055 56.4076 37.0269 56.4173 36.9994C56.6411 36.3649 56.8277 35.7133 56.9774 35.0477C56.9879 35.0005 57 34.9537 57.0101 34.9062C57.0489 34.7266 57.0831 34.5454 57.1164 34.3637C57.1321 34.2778 57.1482 34.1921 57.1626 34.1059C57.1896 33.9438 57.2141 33.781 57.2367 33.6175C57.2523 33.5039 57.2665 33.3903 57.28 33.2765C57.297 33.1322 57.3135 32.9876 57.3271 32.8422C57.3408 32.6938 57.3511 32.5452 57.361 32.3963C57.3687 32.2791 57.3784 32.1622 57.3838 32.0443C57.3956 31.7915 57.4022 31.5383 57.4031 31.2849C57.4031 31.2662 57.4046 31.2479 57.4046 31.229C57.4046 31.2189 57.4037 31.2088 57.4037 31.1987C57.4033 30.9399 57.3958 30.6826 57.3842 30.4262C57.3808 30.3517 57.3763 30.2774 57.372 30.2031C57.3593 29.9851 57.3428 29.7681 57.3223 29.5523C57.3176 29.5033 57.3138 29.4543 57.3088 29.4056C56.6598 23.1322 52.6965 17.7626 46.9792 15.279C49.4429 12.5112 53.0064 10.8694 56.7783 10.8694ZM35.4641 18.9282C35.5059 18.913 35.5483 18.8986 35.5901 18.8836C35.7205 18.8369 35.8519 18.7927 35.984 18.75C36.0841 18.718 36.1848 18.687 36.2862 18.6574C36.3599 18.6357 36.4338 18.6149 36.5079 18.5943C36.6402 18.558 36.7731 18.5225 36.9073 18.4901C37.8996 18.2491 38.9344 18.1183 39.9995 18.1183C41.0654 18.1192 42.1006 18.2502 43.0931 18.4912C43.2265 18.5234 43.3585 18.5586 43.4902 18.5947C43.5654 18.6155 43.6405 18.6366 43.7151 18.6587C43.8152 18.6881 43.9148 18.7186 44.0138 18.7502C44.1476 18.7933 44.2806 18.838 44.4124 18.8853C44.453 18.8997 44.4936 18.9134 44.534 18.9282C48.9182 20.5496 52.2053 24.4514 52.9493 29.1865C52.9551 29.2243 52.9607 29.2623 52.9663 29.3004C52.9901 29.4608 53.0101 29.6225 53.0279 29.7847C53.0344 29.8444 53.0412 29.9039 53.047 29.9638C53.0612 30.1118 53.0717 30.2608 53.0812 30.4103C53.0851 30.4743 53.0904 30.5381 53.0934 30.6023C53.1025 30.7933 53.1074 30.9853 53.108 31.1783C53.108 31.1951 53.1091 31.2114 53.1091 31.2282C53.1091 31.2359 53.1087 31.2439 53.1087 31.2516C53.1082 31.4384 53.1027 31.624 53.0945 31.8089C53.0919 31.8671 53.0893 31.9253 53.0859 31.9833C53.0758 32.162 53.0625 32.3398 53.0453 32.5164C53.0387 32.5847 53.0296 32.6528 53.0219 32.7209C53.0088 32.8351 52.9942 32.9492 52.9783 33.0626C52.9659 33.1508 52.9534 33.2393 52.9392 33.3272C52.9175 33.461 52.8935 33.5939 52.8677 33.7264C52.8447 33.8443 52.8196 33.9618 52.7934 34.0791C52.7777 34.1498 52.7614 34.2204 52.7444 34.2906C52.7025 34.4648 52.6566 34.6379 52.6076 34.8104C52.5881 34.8789 52.5698 34.9479 52.5492 35.0157C52.5193 35.1145 52.4871 35.2125 52.4551 35.3104C52.4293 35.3888 52.4029 35.4668 52.3757 35.5445C52.3447 35.6328 52.3142 35.7213 52.2816 35.8089C52.226 35.9577 52.1675 36.1053 52.1068 36.2515C52.0797 36.3168 52.0509 36.3815 52.0228 36.4466C51.9697 36.5683 51.9152 36.6895 51.8585 36.8093C51.8518 36.8235 51.8452 36.8377 51.8385 36.8518C51.8181 36.8944 51.7979 36.9371 51.7771 36.9796C51.7135 37.1094 51.6474 37.2376 51.5795 37.3647C51.5531 37.4141 51.5275 37.4642 51.5004 37.5133C51.4987 37.5166 51.497 37.5196 51.4953 37.5226C51.421 37.6579 51.3434 37.791 51.2646 37.9233C51.2333 37.9758 51.2023 38.0284 51.1703 38.0801C51.0844 38.2195 50.9962 38.3574 50.9053 38.4931C50.8488 38.5776 50.7898 38.6602 50.7313 38.7434C50.6817 38.8138 50.6323 38.8845 50.5814 38.9538C50.5155 39.0436 50.4483 39.1323 50.38 39.2206C50.3336 39.2805 50.2868 39.34 50.2395 39.3993C50.1673 39.4895 50.0945 39.5793 50.0202 39.6675C49.974 39.7223 49.9266 39.776 49.8795 39.8299C49.8022 39.9186 49.7251 40.0075 49.6456 40.0941C49.5984 40.1454 49.5494 40.1948 49.5013 40.2455C49.372 40.3819 49.2397 40.5153 49.1048 40.646C49.0247 40.7236 48.9451 40.8013 48.863 40.8767C48.8063 40.9289 48.7481 40.9796 48.6903 41.0309C48.5963 41.1145 48.5015 41.1972 48.4051 41.2779C48.3561 41.3189 48.3067 41.3595 48.2571 41.3999C48.1405 41.4948 48.0224 41.5878 47.9023 41.6789C47.8697 41.7036 47.8375 41.7287 47.8046 41.7532C45.6225 43.3754 42.9215 44.337 39.9997 44.337C37.0777 44.337 34.3762 43.3752 32.1941 41.7526C32.1619 41.7285 32.1303 41.7038 32.0983 41.6795C31.9778 41.5883 31.8591 41.4946 31.742 41.3993C31.6928 41.3591 31.6436 41.3189 31.5951 41.2781C31.4982 41.1969 31.4033 41.1138 31.3088 41.0301C31.2515 40.979 31.1935 40.9287 31.137 40.8767C31.0547 40.8011 30.9748 40.7232 30.8945 40.6456C30.759 40.5144 30.6265 40.3806 30.4967 40.2438C30.4493 40.1937 30.4007 40.145 30.3541 40.0943C30.2745 40.0075 30.1974 39.9184 30.12 39.8297C30.073 39.7758 30.0257 39.7223 29.9796 39.6675C29.905 39.5793 29.8324 39.4895 29.7603 39.3995C29.713 39.3402 29.666 39.2807 29.6196 39.2206C29.5515 39.1325 29.4843 39.0438 29.4184 38.9541C29.3675 38.8845 29.3178 38.8136 29.2682 38.7429C29.2098 38.66 29.151 38.5776 29.0947 38.4934C29.0034 38.357 28.9147 38.2187 28.8286 38.0788C28.797 38.0275 28.7665 37.9758 28.7356 37.924C28.6555 37.7898 28.5771 37.6549 28.5017 37.5176C28.474 37.4672 28.4478 37.4158 28.4205 37.3651C28.3526 37.2376 28.2863 37.1089 28.2225 36.979C28.1997 36.9328 28.1776 36.8862 28.1555 36.8398C28.1521 36.8327 28.1488 36.8256 28.1456 36.8185C28.0861 36.6931 28.0292 36.5664 27.9736 36.4386C27.9472 36.3778 27.9203 36.3173 27.895 36.2563C27.8327 36.1068 27.7732 35.956 27.7163 35.804C27.6856 35.7219 27.6572 35.639 27.6282 35.5563C27.5984 35.4715 27.5696 35.386 27.5414 35.3003C27.5112 35.2075 27.4807 35.1147 27.4523 35.0215C27.41 34.8821 27.3701 34.7419 27.3325 34.6008C27.3061 34.5018 27.2822 34.4019 27.2579 34.3022C27.239 34.2239 27.2208 34.1455 27.2034 34.0666C27.1819 33.97 27.1602 33.8736 27.1409 33.7765C27.111 33.6253 27.0838 33.4732 27.0593 33.3203C27.046 33.2378 27.0344 33.1551 27.0225 33.0727C27.0052 32.9505 26.9895 32.8276 26.9755 32.7043C26.9686 32.6435 26.9607 32.5828 26.9545 32.522C26.9366 32.3409 26.9231 32.1586 26.9128 31.9756C26.9098 31.923 26.9074 31.8703 26.9051 31.8177C26.8963 31.6221 26.89 31.4258 26.89 31.2282C26.89 31.0164 26.896 30.8061 26.9061 30.5967C26.9089 30.5398 26.9137 30.4833 26.9169 30.4266C26.9263 30.2694 26.9377 30.1126 26.9527 29.9567C26.9579 29.9024 26.9641 29.8482 26.9699 29.7941C26.9884 29.6253 27.0092 29.4574 27.0341 29.2905C27.0389 29.258 27.0436 29.2254 27.0488 29.193C27.7904 24.455 31.0781 20.5506 35.4641 18.9282ZM10.1122 23.9789C10.1122 16.7504 15.993 10.8694 23.2217 10.8694C26.9938 10.8694 30.5571 12.5114 33.0208 15.2786C27.3015 17.7631 23.3374 23.1352 22.6903 29.4112C22.6858 29.4537 22.6826 29.4964 22.6785 29.5392C22.657 29.7628 22.6401 29.9872 22.6272 30.2129C22.6233 30.2817 22.619 30.3502 22.6158 30.4191C22.6036 30.6878 22.5952 30.9573 22.5952 31.2288C22.5952 31.5029 22.6031 31.7763 22.616 32.0495C22.6212 32.1594 22.6302 32.2683 22.6373 32.3776C22.6478 32.5349 22.6585 32.6921 22.6731 32.8489C22.686 32.9883 22.7019 33.1268 22.7182 33.2653C22.7324 33.386 22.7475 33.5063 22.7642 33.6266C22.7861 33.7844 22.8097 33.9416 22.8357 34.0982C22.8514 34.1912 22.8686 34.284 22.8856 34.3768C22.9178 34.552 22.9506 34.7269 22.988 34.9002C23.0005 34.9573 23.0146 35.014 23.0275 35.0709C23.1734 35.7159 23.3544 36.3473 23.57 36.9631C23.5838 37.0028 23.5958 37.043 23.6098 37.0825C23.4803 37.0864 23.3505 37.0883 23.2212 37.0883C15.993 37.0881 10.1122 31.2073 10.1122 23.9789ZM20.3796 51.3629C20.3323 51.4374 20.2872 51.5132 20.2408 51.5882C20.1427 51.7467 20.0454 51.9056 19.9513 52.0661C19.8987 52.1556 19.848 52.2458 19.7969 52.336C19.7123 52.4849 19.6287 52.6341 19.5475 52.7847C19.4964 52.8794 19.4461 52.9746 19.3963 53.0697C19.3181 53.2194 19.2419 53.37 19.1672 53.5209C19.1201 53.6159 19.0733 53.7106 19.0278 53.806C18.9517 53.9651 18.8785 54.1255 18.8061 54.2862C18.7668 54.3736 18.7264 54.4604 18.6884 54.5482C18.6047 54.7407 18.5248 54.9346 18.4464 55.1292C18.4234 55.1861 18.3989 55.2424 18.3766 55.2993C18.2771 55.5521 18.182 55.8066 18.0918 56.0624C18.0712 56.121 18.0527 56.1803 18.0323 56.2389C17.9644 56.4361 17.8983 56.6339 17.8358 56.8326C17.8072 56.9238 17.7808 57.0156 17.7533 57.107C17.7028 57.2754 17.6532 57.444 17.6066 57.6137C17.5789 57.7146 17.5525 57.8158 17.5261 57.9172C17.4835 58.08 17.4427 58.2432 17.4041 58.4071C17.3794 58.5108 17.3553 58.6145 17.3323 58.7185C17.2954 58.8845 17.2608 59.0512 17.2275 59.2181C17.2076 59.3184 17.1869 59.4187 17.1682 59.5194C17.1345 59.7011 17.1042 59.8837 17.0748 60.0664C17.0611 60.1523 17.0458 60.2378 17.0329 60.3237C16.993 60.5922 16.9567 60.8613 16.9262 61.1317C16.9258 61.1349 16.9256 61.1382 16.9253 61.1414C16.8976 61.3873 16.8738 61.6336 16.8538 61.8808H4.2955V56.4954C4.2955 49.1376 8.52527 42.5322 15.1519 39.3926C17.566 40.6615 20.3102 41.3838 23.2215 41.3838C24.0634 41.3838 24.9079 41.3215 25.7459 41.1982C25.8765 41.3844 26.0092 41.5687 26.1467 41.7496C26.1931 41.8103 26.2412 41.8696 26.2884 41.9298C26.4242 42.1033 26.5619 42.2749 26.704 42.4431C26.7622 42.512 26.822 42.5795 26.8812 42.6475C27.0144 42.8005 27.1497 42.9514 27.288 43.0994C27.3606 43.1774 27.4345 43.2541 27.5084 43.3307C27.6349 43.4611 27.7631 43.5895 27.8935 43.716C27.9424 43.7635 27.9886 43.8138 28.038 43.8608C27.8514 43.9736 27.6664 44.0891 27.4832 44.207C27.4534 44.2261 27.4242 44.2463 27.3945 44.2657C27.2113 44.3846 27.0301 44.5062 26.8505 44.6301C26.7884 44.6731 26.7266 44.7165 26.6647 44.7598C26.5047 44.8726 26.3464 44.9873 26.1894 45.1039C26.1398 45.1409 26.0896 45.1769 26.0404 45.2143C25.8406 45.3653 25.6433 45.5191 25.4485 45.6763C25.4059 45.7107 25.3643 45.7461 25.3217 45.7809C25.1667 45.9078 25.0131 46.0369 24.8615 46.1679C24.8026 46.2186 24.7442 46.2697 24.6858 46.321C24.534 46.4549 24.384 46.5906 24.2356 46.7283C24.197 46.7641 24.1575 46.7994 24.119 46.8356C23.9369 47.007 23.7575 47.1817 23.5808 47.3593C23.5348 47.4054 23.4899 47.4525 23.4444 47.4989C23.3091 47.637 23.1753 47.7766 23.0432 47.9181C22.9908 47.9744 22.9384 48.0307 22.8864 48.0876C22.7378 48.2499 22.5913 48.4145 22.4472 48.5813C22.4246 48.6075 22.4012 48.6329 22.3787 48.6593C22.2144 48.8511 22.0537 49.0465 21.8952 49.2439C21.851 49.2989 21.8078 49.3547 21.7642 49.4104C21.645 49.5618 21.5275 49.7147 21.412 49.8691C21.3673 49.9288 21.3224 49.9881 21.2784 50.0483C21.1272 50.2544 20.9779 50.4623 20.833 50.6739C20.6772 50.9011 20.5265 51.1311 20.3796 51.3629ZM21.0739 69.1308V66.1766V63.7453C21.0739 63.5069 21.0784 63.2694 21.0872 63.0325C21.09 62.9545 21.0963 62.8772 21.1001 62.7994C21.1079 62.6414 21.1152 62.4831 21.1268 62.3256C21.1339 62.2301 21.1446 62.1354 21.1532 62.04C21.1656 61.9012 21.1768 61.7623 21.1923 61.6244C21.2037 61.5235 21.2185 61.4232 21.2314 61.3224C21.2481 61.1912 21.2638 61.0598 21.2831 60.9292C21.2988 60.8252 21.3177 60.7221 21.3349 60.6186C21.3559 60.4928 21.3755 60.3665 21.3991 60.2413C21.4191 60.1354 21.4423 60.0306 21.464 59.9251C21.4889 59.8035 21.5127 59.6815 21.54 59.5608C21.564 59.4543 21.5915 59.3489 21.6173 59.2428C21.6463 59.1246 21.674 59.0059 21.7052 58.8884C21.7335 58.7816 21.7649 58.676 21.7949 58.5701C21.8276 58.4548 21.8594 58.3392 21.8942 58.2247C21.9266 58.1182 21.9622 58.0125 21.9964 57.9067C22.0329 57.7943 22.0683 57.6818 22.1068 57.5703C22.1433 57.4649 22.1826 57.3603 22.2208 57.2557C22.2612 57.1453 22.3007 57.0345 22.343 56.9249C22.3834 56.8208 22.4264 56.7179 22.4682 56.6143C22.5123 56.5063 22.5557 56.3976 22.6016 56.2905C22.6461 56.1872 22.6929 56.0849 22.7391 55.9827C22.7865 55.8772 22.8336 55.7714 22.883 55.667C22.9313 55.565 22.982 55.4642 23.032 55.3631C23.0831 55.26 23.1336 55.1567 23.1865 55.0547C23.2386 54.9541 23.293 54.8549 23.3469 54.7555C23.4014 54.6547 23.4554 54.554 23.5116 54.4544C23.5675 54.3556 23.6255 54.2583 23.6828 54.1605C23.7408 54.0622 23.7983 53.9636 23.8583 53.8661C23.9178 53.7692 23.9792 53.6739 24.0404 53.5781C24.1018 53.4821 24.1628 53.3861 24.226 53.2911C24.2891 53.1962 24.354 53.1026 24.4188 53.0089C24.4835 52.9155 24.5479 52.8221 24.6141 52.7297C24.6806 52.6369 24.7492 52.5454 24.8177 52.4537C24.8855 52.3629 24.9532 52.272 25.0226 52.1825C25.0926 52.0921 25.1643 52.0029 25.2361 51.9136C25.3071 51.8251 25.3784 51.7368 25.451 51.6496C25.5243 51.562 25.599 51.4754 25.6738 51.3891C25.7483 51.303 25.823 51.2168 25.8993 51.1318C25.9755 51.0467 26.0535 50.963 26.1312 50.8792C26.209 50.7957 26.2867 50.7126 26.366 50.6305C26.4454 50.548 26.5264 50.4668 26.6076 50.3859C26.6886 50.3049 26.77 50.2244 26.8524 50.1447C26.9347 50.0654 27.0183 49.9873 27.1022 49.9093C27.1864 49.8311 27.271 49.7532 27.3567 49.6763C27.4422 49.5998 27.5286 49.5244 27.6155 49.4495C27.7027 49.3741 27.7906 49.2991 27.8793 49.2252C27.9676 49.1518 28.0567 49.0794 28.1465 49.0075C28.2369 48.9349 28.328 48.8629 28.4199 48.7918C28.5107 48.7218 28.6024 48.6526 28.6946 48.5839C28.7882 48.5141 28.8825 48.4452 28.9779 48.3771C29.0711 48.3103 29.1651 48.2446 29.2599 48.1793C29.3569 48.1125 29.4544 48.0466 29.5528 47.9815C29.6484 47.9183 29.7448 47.8558 29.8417 47.7942C29.942 47.7304 30.0429 47.6675 30.1445 47.6056C30.2425 47.5459 30.341 47.4868 30.4403 47.4289C30.5434 47.3685 30.6473 47.309 30.7519 47.2504C30.8522 47.1941 30.9531 47.1385 31.0547 47.0839C31.161 47.0268 31.2682 46.9707 31.376 46.9153C31.4783 46.8627 31.5809 46.8109 31.6845 46.76C31.7659 46.7201 31.8481 46.6814 31.9304 46.6426C34.3442 47.9115 37.0888 48.6335 39.9999 48.6335C42.9112 48.6335 45.6556 47.9115 48.0694 46.6426C48.151 46.6812 48.2326 46.7197 48.3134 46.7592C48.4182 46.8107 48.5219 46.8631 48.6255 46.9162C48.732 46.971 48.8381 47.0264 48.9433 47.0829C49.046 47.1381 49.148 47.1943 49.2494 47.2512C49.3527 47.3092 49.4554 47.3679 49.5572 47.4276C49.6579 47.4864 49.7578 47.5463 49.857 47.6069C49.9573 47.6681 50.0567 47.73 50.1555 47.7929C50.2539 47.8554 50.3514 47.9185 50.4483 47.9828C50.5456 48.047 50.642 48.1123 50.7378 48.1782C50.8334 48.2441 50.9285 48.3105 51.0228 48.3779C51.1171 48.4454 51.2103 48.5137 51.3031 48.5828C51.3963 48.652 51.4888 48.7218 51.5806 48.7927C51.6716 48.8631 51.7618 48.9344 51.8516 49.0064C51.9418 49.0788 52.0316 49.1516 52.1205 49.2254C52.2088 49.2989 52.296 49.3734 52.3827 49.4484C52.4702 49.5238 52.5571 49.5996 52.643 49.6767C52.7281 49.7529 52.8121 49.8303 52.8956 49.9078C52.9802 49.9864 53.0646 50.0654 53.1478 50.1455C53.2296 50.2244 53.3101 50.3043 53.3903 50.3844C53.4719 50.466 53.5535 50.5478 53.6336 50.6307C53.7122 50.7123 53.7897 50.7948 53.8668 50.8777C53.9454 50.9621 54.0238 51.0467 54.1007 51.1324C54.1763 51.2166 54.2504 51.3019 54.3243 51.3874C54.3997 51.4744 54.4751 51.5616 54.5487 51.65C54.6211 51.7366 54.6918 51.8244 54.7624 51.9123C54.8346 52.0021 54.9068 52.0916 54.9772 52.1827C55.0464 52.2718 55.1136 52.3622 55.181 52.4527C55.2498 52.5446 55.3185 52.6367 55.3855 52.7299C55.4514 52.8216 55.5157 52.9149 55.5799 53.0079C55.645 53.1019 55.7102 53.196 55.7736 53.2914C55.8363 53.3856 55.8969 53.481 55.9579 53.5764C56.0195 53.6728 56.0814 53.769 56.1413 53.8665C56.2006 53.963 56.2577 54.0609 56.3153 54.1584C56.3733 54.2568 56.4317 54.3549 56.4877 54.4544C56.5438 54.5536 56.5975 54.6541 56.6518 54.7542C56.7059 54.8541 56.7605 54.9537 56.8127 55.0544C56.8655 55.1562 56.9158 55.2595 56.9669 55.3624C57.0169 55.4636 57.0678 55.5645 57.1162 55.6668C57.1656 55.7711 57.2124 55.8766 57.2596 55.9818C57.306 56.0847 57.3531 56.187 57.3975 56.2907C57.4433 56.397 57.486 56.5046 57.5298 56.612C57.5723 56.7164 57.6157 56.8203 57.6563 56.9256C57.6984 57.0345 57.7377 57.1446 57.7779 57.2546C57.8163 57.3596 57.8556 57.4642 57.8921 57.5701C57.9308 57.682 57.9665 57.7952 58.003 57.9079C58.0371 58.0134 58.0726 58.1184 58.1048 58.2247C58.1398 58.3392 58.1714 58.455 58.2042 58.5703C58.2343 58.6762 58.2656 58.7816 58.294 58.8884C58.3251 59.0059 58.3528 59.1244 58.3818 59.2428C58.4078 59.3487 58.4351 59.4543 58.4591 59.5608C58.4864 59.6815 58.5101 59.8033 58.5352 59.9247C58.5569 60.0301 58.5801 60.1352 58.6 60.2413C58.6235 60.3654 58.6428 60.4906 58.6638 60.6156C58.6812 60.7202 58.7006 60.8242 58.7162 60.9294C58.7356 61.0589 58.751 61.1895 58.7678 61.3196C58.7809 61.4212 58.7959 61.5222 58.8073 61.6242C58.8228 61.7621 58.8339 61.901 58.8464 62.0398C58.855 62.1351 58.8657 62.2299 58.8728 62.3254C58.8846 62.4829 58.8917 62.6414 58.8994 62.7997C58.9033 62.8772 58.9095 62.9545 58.9123 63.0323C58.9211 63.2691 58.9256 63.5067 58.9256 63.7451V66.1761V69.1308H21.0739ZM63.147 61.8808C63.1049 61.3577 63.0444 60.8377 62.9675 60.3209C62.9552 60.2391 62.9406 60.1579 62.9275 60.0763C62.8977 59.8892 62.8666 59.7026 62.832 59.5166C62.8137 59.4187 62.7937 59.3212 62.7742 59.2234C62.7405 59.0536 62.7052 58.8841 62.6677 58.7153C62.6449 58.6135 62.6213 58.5117 62.5972 58.4103C62.5579 58.2445 62.5167 58.0793 62.4737 57.9146C62.4477 57.8147 62.4218 57.7151 62.3943 57.6154C62.3472 57.444 62.297 57.2735 62.2458 57.1032C62.2188 57.0134 62.193 56.9234 62.1649 56.8339C62.1015 56.6322 62.0345 56.4316 61.9656 56.2314C61.9462 56.1756 61.9286 56.1191 61.9089 56.0632C61.8182 55.8066 61.7231 55.5514 61.6232 55.2978C61.6017 55.2434 61.5783 55.1898 61.5564 55.1354C61.4772 54.9385 61.396 54.7419 61.3111 54.5469C61.2736 54.4604 61.2338 54.3749 61.1952 54.2888C61.1221 54.1264 61.0483 53.9647 60.9714 53.804C60.9265 53.7099 60.8801 53.6165 60.8339 53.5231C60.7585 53.3706 60.6814 53.2188 60.6026 53.0678C60.5532 52.9733 60.5036 52.8792 60.4529 52.7853C60.3713 52.6344 60.2875 52.4844 60.2025 52.335C60.1514 52.2452 60.1009 52.1554 60.0487 52.0663C59.9542 51.905 59.8565 51.7454 59.7577 51.586C59.7117 51.5117 59.667 51.4368 59.6202 51.3631C59.4731 51.1314 59.3223 50.9013 59.1664 50.6739C59.0212 50.4621 58.872 50.2542 58.7207 50.048C58.6769 49.9883 58.6323 49.9293 58.588 49.87C58.4718 49.7147 58.3539 49.5614 58.2343 49.4093C58.1911 49.3545 58.1484 49.2991 58.1046 49.2448C57.9458 49.0468 57.7845 48.8509 57.6198 48.6587C57.5983 48.6337 57.5762 48.6095 57.5547 48.5846C57.4095 48.4164 57.2618 48.2506 57.1121 48.0869C57.0605 48.0307 57.0088 47.975 56.9568 47.9192C56.8241 47.7768 56.6894 47.6361 56.5532 47.4974C56.5084 47.4516 56.4643 47.4054 56.419 47.3601C56.2418 47.1823 56.0618 47.007 55.8793 46.8352C55.8417 46.7998 55.803 46.7654 55.7652 46.7302C55.616 46.5917 55.4652 46.4553 55.3127 46.3208C55.2547 46.2697 55.1963 46.219 55.1379 46.1683C54.9858 46.0371 54.8322 45.908 54.677 45.7809C54.6347 45.7463 54.5932 45.7109 54.5507 45.6765C54.3561 45.5193 54.1587 45.3655 53.9592 45.2147C53.9094 45.1772 53.8587 45.1406 53.8086 45.1035C53.6523 44.9875 53.4948 44.8733 53.3355 44.7611C53.273 44.7171 53.2105 44.6733 53.1478 44.6299C52.9699 44.5073 52.7906 44.387 52.6093 44.2693C52.5775 44.2487 52.5464 44.2272 52.5146 44.2068C52.3316 44.0893 52.1474 43.974 51.9609 43.8614C52.009 43.8157 52.0541 43.7669 52.1016 43.7206C52.2348 43.5917 52.3656 43.4607 52.4944 43.3275C52.5664 43.2532 52.6379 43.1787 52.7083 43.1031C52.849 42.9527 52.986 42.7994 53.1214 42.6441C53.1789 42.5782 53.2367 42.5127 53.2932 42.4456C53.4373 42.2751 53.5773 42.1009 53.715 41.9246C53.7601 41.867 53.8063 41.8103 53.8505 41.7521C53.9886 41.5707 54.122 41.3855 54.2532 41.1987C55.0913 41.3217 55.9358 41.384 56.7777 41.384C59.689 41.384 62.4333 40.6619 64.8472 39.3928C71.4741 42.5324 75.7036 49.1378 75.7036 56.4956V61.8808H63.147Z" fill="#FEBF32"/>
</svg>
