<svg width="23" height="31" viewBox="0 0 23 31" fill="none" xmlns="http://www.w3.org/2000/svg">
<path d="M17.6875 5.6216C17.4124 5.47405 17.1291 5.33154 16.8381 5.19629C16.8011 5.17904 16.7647 5.16164 16.7273 5.14516C16.4401 5.01349 16.1438 4.8868 15.8383 4.76509C15.8298 4.19654 15.8614 3.62869 15.933 3.06572C16.0298 2.25048 16.1791 1.48346 16.2964 0.947025C16.3287 0.799691 16.4106 0.668359 16.5289 0.574608C16.6472 0.480856 16.7947 0.430263 16.9473 0.431142L17.5554 0.43174C17.3747 1.50257 17.3237 2.59285 17.4035 3.67952C17.408 3.76205 17.416 3.84402 17.4234 3.92515C17.4748 4.49511 17.563 5.06176 17.6875 5.6216V5.6216Z" fill="#6DA035"/>
<path d="M18.3227 5.63759C18.2119 5.69045 18.1013 5.74152 17.9908 5.79081C17.963 5.77478 17.9341 5.75807 17.9059 5.74181L17.8277 5.69666C17.8239 5.68064 17.82 5.66401 17.8164 5.64661C17.6714 5.00587 17.5745 4.35605 17.5264 3.70252L17.8949 2.90985L18.4773 1.64991C18.5394 1.51703 18.6509 1.4136 18.7888 1.36092C18.9267 1.30824 19.0805 1.31034 19.2186 1.36678C19.3566 1.42322 19.4684 1.5297 19.5307 1.66426C19.5931 1.79883 19.6014 1.95123 19.5539 2.09003L18.7988 4.26753L18.7151 4.50822L18.4038 5.40869L18.3227 5.63759Z" fill="#6DA035"/>
<path d="M21.5625 2.71584L20.6335 4.32502C20.365 4.49746 20.0678 4.68254 19.7525 4.86741C19.3473 5.10594 18.9134 5.34634 18.476 5.56116L18.9013 4.33698L20.5052 2.86021C20.644 2.7319 20.8196 2.64931 21.0086 2.6235C21.1976 2.5977 21.3909 2.62992 21.5625 2.71584V2.71584Z" fill="#6DA035"/>
<path d="M22.6612 4.25659C21.8238 5.24838 20.6198 6.14338 19.6158 6.79868C19.3991 6.65204 19.1809 6.51428 18.9692 6.38335L18.8584 6.31426L18.8416 6.30455C18.7512 6.2488 18.663 6.19479 18.5782 6.14121L18.5321 6.11457C18.4648 6.07214 18.3967 6.03026 18.3283 5.98975L18.2223 5.92597L18.1245 5.86953C18.1707 5.84907 18.2176 5.82746 18.2651 5.80669L18.4191 5.73317C19.1346 5.38255 19.829 4.99205 20.4991 4.5635C20.5749 4.51609 20.6492 4.46877 20.721 4.42208C21.3684 4.00417 21.8456 3.65908 21.9952 3.54975L22.4906 4.07711L22.6612 4.25659Z" fill="#6DA035"/>
<path d="M14.1895 16.9934L14.1298 17.0968L16.0417 18.2006C15.93 18.3206 15.8177 18.4399 15.7047 18.5584C14.68 19.6379 13.6639 20.7449 12.6682 21.8636L10.6914 20.7223L10.6319 20.8253L12.5872 21.9541C12.0979 22.5049 11.6144 23.0584 11.1367 23.6148C11.0331 23.7364 10.9296 23.8571 10.8271 23.9777L10.8761 23.8928L9.24543 22.9513L9.18597 23.0543L10.8139 23.9942C10.7211 24.1026 10.6292 24.2104 10.5378 24.319C10.1391 24.7883 9.74898 25.2472 9.34956 25.6961L8.08294 24.9648L8.02347 25.0678L9.26819 25.7865C8.5014 26.6423 7.70339 27.4483 6.76718 28.1776C6.4336 28.4375 6.07283 28.6704 5.69446 28.6159C5.43871 28.5784 5.23086 28.4128 5.08776 28.2082C5.00822 28.0948 4.94775 27.9696 4.90873 27.8374C4.79412 27.4489 4.83681 27.02 4.87497 26.6424L5.00482 25.3338C5.03826 24.9995 5.07032 24.6634 5.10101 24.3255C5.12882 24.0289 5.15635 23.7302 5.18638 23.4298L6.38105 24.1196L6.44052 24.0166L5.20127 23.3011C5.28033 22.5094 5.37259 21.712 5.51007 20.932L7.03517 21.8126L7.09464 21.7096L5.53395 20.8085C5.54167 20.7617 5.55056 20.7156 5.56141 20.6706C5.72334 19.8538 5.92831 19.0467 6.17549 18.2524L8.10182 19.3645L8.16129 19.2615L6.20759 18.1335C6.42215 17.4314 6.65654 16.7391 6.88583 16.0557L6.88894 16.0503C7.13361 15.3276 7.38054 14.5965 7.63857 13.8651L9.60127 14.9982L9.66096 14.8948L7.67949 13.7508C8.12162 12.4965 8.59431 11.2397 9.13014 10.0236C9.24435 9.76616 9.36653 9.51028 9.49519 9.25763L11.4833 10.4055L11.543 10.3021L9.54862 9.15063C9.77636 8.70921 10.0184 8.27554 10.2561 7.85115C10.6152 7.20935 10.9863 6.5458 11.2963 5.86898L11.3146 5.83089C11.3519 5.74736 11.3904 5.66971 11.4333 5.59194L13.3987 6.72668L13.4582 6.62368L11.4912 5.48803C12.1351 4.36812 13.1449 3.96928 14.3677 4.36371C14.8382 4.51577 15.2883 4.67657 15.7181 4.84612C15.7605 4.86294 15.8006 4.87839 15.8402 4.89462C16.1271 5.01003 16.4056 5.12967 16.6758 5.25355L16.7866 5.30467C17.1089 5.45493 17.4208 5.6128 17.7223 5.77828L17.7313 5.81681L17.7459 5.79144C17.7811 5.81176 17.8163 5.83208 17.8525 5.84987L17.8507 5.85294C17.8507 5.85294 17.852 5.85064 17.8552 5.85145L17.8638 5.85642C17.9057 5.88058 17.9463 5.90406 17.9874 5.92776C18.005 5.93792 18.0218 5.94763 18.0394 5.95779C18.0867 5.98511 18.134 6.01243 18.1806 6.03929L18.2877 6.10116L18.5053 6.23548L18.5131 6.23999C18.5895 6.28822 18.6695 6.33749 18.7511 6.38766L18.7769 6.40256L18.863 6.45583C19.0709 6.58511 19.289 6.72127 19.5042 6.86601C19.542 6.89089 19.5763 6.91535 19.6125 6.94032C20.3346 7.44074 21.0108 8.05046 21.2049 8.85844C21.3375 9.41261 21.1987 10.0017 21.0445 10.5035C21.0221 10.5767 20.9997 10.6498 20.9766 10.7205L18.9478 9.5492L18.8879 9.65297L20.9386 10.8369C19.995 13.6353 18.105 15.9851 16.1266 18.1077L14.1895 16.9934Z" fill="#F67727"/>
<path d="M15.1229 9.68317L13.2842 8.62158L13.2245 8.72497L15.0632 9.78656L15.1229 9.68317Z" fill="#1B2709"/>
<path d="M18.4851 11.6244L16.3574 10.396L16.2977 10.4994L18.4255 11.7278L18.4851 11.6244Z" fill="#1B2709"/>
<path d="M12.6483 13.9693L10.8096 12.9077L10.7499 13.0111L12.5886 14.0727L12.6483 13.9693Z" fill="#1B2709"/>
<path d="M16.0115 15.9101L13.8838 14.6816L13.8241 14.785L15.9518 16.0135L16.0115 15.9101Z" fill="#1B2709"/>
<path d="M10.5766 18.0739L9.27637 17.3232L9.21668 17.4266L10.5169 18.1773L10.5766 18.0739Z" fill="#1B2709"/>
<path d="M12.954 19.4464L11.4492 18.5776L11.3895 18.681L12.8943 19.5498L12.954 19.4464Z" fill="#1B2709"/>
<path d="M8.86177 21.0427L7.56152 20.292L7.50183 20.3954L8.80209 21.1461L8.86177 21.0427Z" fill="#1B2709"/>
<path d="M11.2401 22.4157L9.73535 21.5469L9.67566 21.6503L11.1804 22.519L11.2401 22.4157Z" fill="#1B2709"/>
<path d="M7.63697 23.3643L6.86816 22.9204L6.80847 23.0238L7.57728 23.4677L7.63697 23.3643Z" fill="#1B2709"/>
<path d="M7.42037 25.5118L6.65234 25.0684L6.59265 25.1717L7.36068 25.6152L7.42037 25.5118Z" fill="#1B2709"/>
<path d="M6.67311 27.1109L5.9043 26.667L5.84461 26.7704L6.61342 27.2142L6.67311 27.1109Z" fill="#1B2709"/>
<path d="M5.83971 25.6653L5.07129 25.2217L5.0116 25.3251L5.78002 25.7687L5.83971 25.6653Z" fill="#1B2709"/>
<path d="M9.04199 24.1757L8.15234 23.6621L8.09265 23.7655L8.9823 24.2791L9.04199 24.1757Z" fill="#1B2709"/>
<path d="M16.7259 5.14488C16.4386 5.01321 16.1423 4.88652 15.8368 4.76481C15.8283 4.19626 15.86 3.62841 15.9315 3.06543C16.0284 2.25019 16.1777 1.48318 16.295 0.946742C16.3165 0.847698 16.3608 0.755218 16.4243 0.676425C16.4879 0.597633 16.5691 0.53463 16.6617 0.492269C16.4387 1.30645 16.2022 2.88296 16.7259 5.14488Z" fill="#365229"/>
<path d="M22.6606 4.25628C21.8231 5.24807 20.6192 6.14307 19.6152 6.79838C19.3985 6.65174 19.1803 6.51398 18.9686 6.38305L18.8578 6.31395L18.841 6.30424C18.7506 6.2485 18.6624 6.19449 18.5776 6.14091L18.5314 6.11427C20.6595 5.60268 21.8904 4.66378 22.49 4.0768L22.6606 4.25628Z" fill="#365229"/>
<path d="M21.5626 2.7156L20.6335 4.32478C20.365 4.49721 20.0679 4.6823 19.7526 4.86717L21.0508 2.61846C21.2265 2.60262 21.4039 2.63629 21.5626 2.7156V2.7156Z" fill="#365229"/>
<path d="M14.1893 16.9934L14.1296 17.0968L16.0415 18.2006C15.9298 18.3206 15.8175 18.4399 15.7045 18.5585C14.6798 19.6379 13.6637 20.7449 12.668 21.8636L11.0193 20.9118C12.42 18.4312 14.1165 16.1294 16.0729 14.0552C16.8756 13.2068 17.738 12.3668 18.1798 11.2864C18.6285 10.1905 18.4332 8.14901 18.5039 6.23486L18.5117 6.23938C18.5882 6.28761 18.6682 6.33688 18.7497 6.38705L18.7756 6.40195L18.8616 6.45521C19.0696 6.5845 19.2876 6.72065 19.5028 6.86539C19.5406 6.89028 19.575 6.91473 19.6111 6.93971C20.3332 7.44013 21.0094 8.04985 21.2035 8.85782C21.3362 9.41199 21.1973 10.0011 21.0431 10.5029C21.0207 10.5761 20.9983 10.6492 20.9752 10.7199L18.9476 9.54927L18.8877 9.65303L20.9384 10.837C19.9948 13.6354 18.1048 15.9852 16.1264 18.1077L14.1893 16.9934Z" fill="#F65B27"/>
</svg>
