<svg width="18" height="19" viewBox="0 0 18 19" fill="none" xmlns="http://www.w3.org/2000/svg">
<g clip-path="url(#clip0_19_5750)">
<path d="M7.99377 5.22758L8.38463 4.80053V7.39903C8.38463 7.591 8.46089 7.7751 8.59663 7.91084C8.73237 8.04658 8.91647 8.12284 9.10844 8.12284C9.30041 8.12284 9.48451 8.04658 9.62025 7.91084C9.756 7.7751 9.83226 7.591 9.83226 7.39903V4.80053L10.2231 5.19863C10.2888 5.27284 10.3691 5.33276 10.4589 5.37469C10.5487 5.41661 10.6461 5.43965 10.7452 5.44236C10.8443 5.44507 10.9429 5.42741 11.0348 5.39047C11.1268 5.35352 11.2102 5.29808 11.2799 5.22758C11.3477 5.1603 11.4016 5.08024 11.4383 4.99204C11.4751 4.90384 11.494 4.80923 11.494 4.71368C11.494 4.61812 11.4751 4.52352 11.4383 4.43531C11.4016 4.34711 11.3477 4.26706 11.2799 4.19977L9.62235 2.54223C9.55351 2.47634 9.47234 2.42468 9.38349 2.39023C9.20727 2.31784 9.00961 2.31784 8.83339 2.39023C8.74454 2.42468 8.66337 2.47634 8.59453 2.54223L6.937 4.17082C6.79686 4.31095 6.71813 4.50102 6.71813 4.6992C6.71813 4.89738 6.79686 5.08745 6.937 5.22758C7.07713 5.36772 7.2672 5.44645 7.46538 5.44645C7.66357 5.44645 7.85363 5.36772 7.99377 5.22758ZM9.10844 9.57047C8.67897 9.57047 8.25914 9.69782 7.90205 9.93642C7.54496 10.175 7.26664 10.5142 7.10229 10.9109C6.93794 11.3077 6.89494 11.7443 6.97872 12.1655C7.06251 12.5868 7.26932 12.9737 7.573 13.2774C7.87668 13.581 8.2636 13.7878 8.68481 13.8716C9.10603 13.9554 9.54264 13.9124 9.93942 13.7481C10.3362 13.5837 10.6753 13.3054 10.9139 12.9483C11.1525 12.5912 11.2799 12.1714 11.2799 11.7419C11.2799 11.166 11.0511 10.6137 10.6439 10.2065C10.2367 9.79925 9.68434 9.57047 9.10844 9.57047ZM9.10844 12.4657C8.96528 12.4657 8.82534 12.4233 8.70631 12.3437C8.58728 12.2642 8.49451 12.1512 8.43972 12.0189C8.38494 11.8866 8.37061 11.7411 8.39853 11.6007C8.42646 11.4603 8.4954 11.3313 8.59663 11.2301C8.69785 11.1289 8.82683 11.0599 8.96723 11.032C9.10764 11.0041 9.25317 11.0184 9.38543 11.0732C9.51769 11.128 9.63074 11.2208 9.71027 11.3398C9.7898 11.4588 9.83226 11.5988 9.83226 11.7419C9.83226 11.9339 9.756 12.118 9.62025 12.2537C9.48451 12.3895 9.30041 12.4657 9.10844 12.4657ZM4.04174 11.7419C4.04174 11.8851 4.08419 12.025 4.16373 12.144C4.24326 12.2631 4.3563 12.3558 4.48856 12.4106C4.62082 12.4654 4.76636 12.4797 4.90676 12.4518C5.04717 12.4239 5.17614 12.355 5.27737 12.2537C5.3786 12.1525 5.44753 12.0235 5.47546 11.8831C5.50339 11.7427 5.48906 11.5972 5.43427 11.4649C5.37949 11.3327 5.28672 11.2196 5.16769 11.1401C5.04865 11.0605 4.90871 11.0181 4.76556 11.0181C4.57359 11.0181 4.38948 11.0944 4.25374 11.2301C4.118 11.3658 4.04174 11.5499 4.04174 11.7419ZM14.1751 11.7419C14.1751 11.5988 14.1327 11.4588 14.0532 11.3398C13.9736 11.2208 13.8606 11.128 13.7283 11.0732C13.5961 11.0184 13.4505 11.0041 13.3101 11.032C13.1697 11.0599 13.0407 11.1289 12.9395 11.2301C12.8383 11.3313 12.7693 11.4603 12.7414 11.6007C12.7135 11.7411 12.7278 11.8866 12.7826 12.0189C12.8374 12.1512 12.9302 12.2642 13.0492 12.3437C13.1682 12.4233 13.3082 12.4657 13.4513 12.4657C13.6433 12.4657 13.8274 12.3895 13.9631 12.2537C14.0989 12.118 14.1751 11.9339 14.1751 11.7419ZM14.899 6.67521H12.0037C11.8117 6.67521 11.6276 6.75147 11.4919 6.88721C11.3561 7.02296 11.2799 7.20706 11.2799 7.39903C11.2799 7.591 11.3561 7.7751 11.4919 7.91084C11.6276 8.04658 11.8117 8.12284 12.0037 8.12284H14.899C15.0909 8.12284 15.275 8.1991 15.4108 8.33484C15.5465 8.47058 15.6228 8.65469 15.6228 8.84666V14.6372C15.6228 14.8291 15.5465 15.0132 15.4108 15.149C15.275 15.2847 15.0909 15.361 14.899 15.361H3.31793C3.12596 15.361 2.94185 15.2847 2.80611 15.149C2.67037 15.0132 2.59411 14.8291 2.59411 14.6372V8.84666C2.59411 8.65469 2.67037 8.47058 2.80611 8.33484C2.94185 8.1991 3.12596 8.12284 3.31793 8.12284H6.21318C6.40515 8.12284 6.58926 8.04658 6.725 7.91084C6.86074 7.7751 6.937 7.591 6.937 7.39903C6.937 7.20706 6.86074 7.02296 6.725 6.88721C6.58926 6.75147 6.40515 6.67521 6.21318 6.67521H3.31793C2.74202 6.67521 2.18971 6.90399 1.78249 7.31121C1.37526 7.71844 1.14648 8.27075 1.14648 8.84666V14.6372C1.14648 15.2131 1.37526 15.7654 1.78249 16.1726C2.18971 16.5798 2.74202 16.8086 3.31793 16.8086H14.899C15.4749 16.8086 16.0272 16.5798 16.4344 16.1726C16.8416 15.7654 17.0704 15.2131 17.0704 14.6372V8.84666C17.0704 8.27075 16.8416 7.71844 16.4344 7.31121C16.0272 6.90399 15.4749 6.67521 14.899 6.67521Z" fill="#FEBF32"/>
</g>
<defs>
<clipPath id="clip0_19_5750">
<rect width="17.3715" height="17.3715" fill="white" transform="translate(0.422852 0.885254)"/>
</clipPath>
</defs>
</svg>
