<svg width="32" height="23" viewBox="0 0 32 23" fill="none" xmlns="http://www.w3.org/2000/svg">
<path d="M31.4274 7.78325C31.4976 5.75148 31.0533 3.73491 30.1357 1.92078C29.5131 1.17641 28.6491 0.674067 27.6942 0.501302C23.7445 0.142918 19.7785 -0.00397159 15.8131 0.061262C11.8622 -0.00693238 7.91043 0.135217 3.97462 0.487107C3.19649 0.628653 2.47638 0.993638 1.90217 1.53752C0.624638 2.71569 0.48269 4.73136 0.340742 6.43474C0.134792 9.49737 0.134792 12.5704 0.340742 15.633C0.381807 16.5917 0.524556 17.5434 0.766586 18.472C0.937741 19.1889 1.28402 19.8522 1.77442 20.4025C2.35253 20.9751 3.08941 21.3609 3.88945 21.5096C6.94973 21.8874 10.0333 22.0439 13.1161 21.9781C18.0843 22.049 22.4421 21.9781 27.5948 21.5806C28.4145 21.441 29.1721 21.0548 29.7666 20.4734C30.164 20.0759 30.4609 19.5892 30.6325 19.0539C31.1402 17.4962 31.3895 15.8659 31.3706 14.2277C31.4274 13.4328 31.4274 8.63494 31.4274 7.78325ZM12.6051 15.0794V6.29279L21.0084 10.7074C18.6521 12.0133 15.5434 13.4896 12.6051 15.0794Z" fill="#FF0000"/>
</svg>
